<?xml version="1.0" encoding="UTF-8" standalone="no"?>
<svg width="128px" height="76px" viewBox="0 0 128 76" version="1.1" xmlns="http://www.w3.org/2000/svg" xmlns:xlink="http://www.w3.org/1999/xlink">
    <defs></defs>
    <g stroke="none" stroke-width="1" fill="none" fill-rule="evenodd">
        <g transform="translate(-182.000000, -308.000000)">
            <g transform="translate(180.000000, 308.000000)">
                <g transform="translate(42.385118, 42.406970) rotate(-12.000000) translate(-42.385118, -42.406970) translate(5.885118, 14.906970)">
                    <rect fill="#F6F6F6" x="2.25597319e-13" y="1" width="72" height="54" rx="6"></rect>
                    <path d="M4,6.99825958 L4,6.99825958 L4,49.0017404 C4,50.1093881 4.89157109,51 5.99943435,51 L66.0005656,51 C67.1022177,51 68,50.1029141 68,49.0017404 L68,6.99825958 C68,5.89061186 67.1084289,5 66.0005656,5 L5.99943435,5 C4.89778231,5 4,5.89708591 4,6.99825958 L4,6.99825958 Z M2.25597319e-13,6.99825958 C2.25597319e-13,3.68551229 2.69107868,1 5.99943435,1 L66.0005656,1 C69.3139617,1 72,3.6778684 72,6.99825958 L72,49.0017404 C72,52.3144877 69.3089213,55 66.0005656,55 L5.99943435,55 C2.68603825,55 2.25597319e-13,52.3221316 2.25597319e-13,49.0017404 L2.25597319e-13,6.99825958 L2.25597319e-13,6.99825958 Z" fill="#DFDFDF"></path>
                    <path d="M10,13 L60,13" stroke="#DFDFDF" stroke-width="4"></path>
                    <path d="M10,19 L60,19" stroke="#DFDFDF" stroke-width="4"></path>
                    <path d="M10,25 L40,25" stroke="#DFDFDF" stroke-width="4"></path>
                    <path d="M18,41 L38,41" stroke="#DFDFDF" stroke-width="4"></path>
                    <path d="M10,41 L14,41" stroke="#DFDFDF" stroke-width="4"></path>
                    <path d="M10,33 L60,33" stroke="#DFDFDF" stroke-width="2" opacity="0.456564832"></path>
                </g>
                <g transform="translate(90.586218, 42.604591) rotate(11.000000) translate(-90.586218, -42.604591) translate(54.086218, 15.104591)">
                    <rect fill="#F6F6F6" x="8.52651283e-14" y="1" width="72" height="54" rx="6"></rect>
                    <path d="M4,6.99825958 L4,6.99825958 L4,49.0017404 C4,50.1093881 4.89157109,51 5.99943435,51 L66.0005656,51 C67.1022177,51 68,50.1029141 68,49.0017404 L68,6.99825958 C68,5.89061186 67.1084289,5 66.0005656,5 L5.99943435,5 C4.89778231,5 4,5.89708591 4,6.99825958 L4,6.99825958 Z M8.52651283e-14,6.99825958 C8.52651283e-14,3.68551229 2.69107868,1 5.99943435,1 L66.0005656,1 C69.3139617,1 72,3.6778684 72,6.99825958 L72,49.0017404 C72,52.3144877 69.3089213,55 66.0005656,55 L5.99943435,55 C2.68603825,55 8.52651283e-14,52.3221316 8.52651283e-14,49.0017404 L8.52651283e-14,6.99825958 L8.52651283e-14,6.99825958 Z" fill="#DFDFDF"></path>
                    <path d="M10,13 L60,13" stroke="#DFDFDF" stroke-width="4"></path>
                    <path d="M10,19 L60,19" stroke="#DFDFDF" stroke-width="4"></path>
                    <path d="M10,25 L40,25" stroke="#DFDFDF" stroke-width="4"></path>
                    <path d="M18,41 L38,41" stroke="#DFDFDF" stroke-width="4"></path>
                    <path d="M10,41 L14,41" stroke="#DFDFDF" stroke-width="4"></path>
                    <path d="M10,33 L60,33" stroke="#DFDFDF" stroke-width="2" opacity="0.456564832"></path>
                </g>
                <g transform="translate(30.000000, 0.000000)">
                    <rect fill="#F6F6F6" x="0" y="0" width="72" height="54" rx="6"></rect>
                    <path d="M4,5.99825958 L4,5.99825958 L4,48.0017404 C4,49.1093881 4.89157109,50 5.99943435,50 L66.0005656,50 C67.1022177,50 68,49.1029141 68,48.0017404 L68,5.99825958 C68,4.89061186 67.1084289,4 66.0005656,4 L5.99943435,4 C4.89778231,4 4,4.89708591 4,5.99825958 L4,5.99825958 Z M0,5.99825958 C0,2.68551229 2.69107868,0 5.99943435,0 L66.0005656,0 C69.3139617,0 72,2.6778684 72,5.99825958 L72,48.0017404 C72,51.3144877 69.3089213,54 66.0005656,54 L5.99943435,54 C2.68603825,54 0,51.3221316 0,48.0017404 L0,5.99825958 L0,5.99825958 Z" fill="#DFDFDF"></path>
                    <path d="M10,12 L60,12" stroke="#DFDFDF" stroke-width="4"></path>
                    <path d="M10,18 L60,18" stroke="#DFDFDF" stroke-width="4"></path>
                    <path d="M10,24 L40,24" stroke="#DFDFDF" stroke-width="4"></path>
                    <path d="M18,40 L38,40" stroke="#DFDFDF" stroke-width="4"></path>
                    <path d="M10,40 L14,40" stroke="#DFDFDF" stroke-width="4"></path>
                    <path d="M10,32 L60,32" stroke="#DFDFDF" stroke-width="2" opacity="0.456564832"></path>
                </g>
            </g>
        </g>
    </g>
</svg>