<?xml version="1.0" encoding="UTF-8" standalone="no"?>
<svg width="410px" height="96px" viewBox="0 0 410 96" version="1.1" xmlns="http://www.w3.org/2000/svg" xmlns:xlink="http://www.w3.org/1999/xlink">
    <defs></defs>
    <g stroke="none" stroke-width="1" fill="none" fill-rule="evenodd">
        <g transform="translate(-41.000000, -39.000000)">
            <g transform="translate(41.000000, 39.000000)">
                <g transform="translate(0.671875, 0.000000)">
                    <circle fill="#FFFFFF" cx="48" cy="48" r="48"></circle>
                    <g transform="translate(13.263158, 14.526316)" fill="#E74C3C">
                        <path d="M69.0189474,32.4928589 C62.9738346,34.3373137 56.9287218,39.2489516 51.5828571,43.8163874 C50.9070677,42.6351074 49.9398496,40.9068884 49.5401504,39.4048337 C49.0231579,37.45856 46.9362406,35.5258021 45.8309774,34.6121347 C45.8724812,34.5553684 45.921203,34.4886905 45.96,34.4337263 C47.1347368,35.3437895 49.9055639,37.2215832 51.3058647,35.9159579 C53.1094737,34.2336926 56.9440602,34.4778779 58.1350376,34.1444884 C59.3269173,33.812 55.9019549,32.2225432 53.283609,32.8866189 C51.0252632,33.4596884 50.6129323,33.9435537 50.3593985,33.8444379 C50.1067669,33.7480253 48.673985,32.7271326 47.9720301,32.2225432 C49.5464662,30.6123621 51.7037594,28.5038989 53.1464662,27.1297937 C54.1912782,27.7551242 55.524812,28.3218863 56.9269173,28.3218863 C58.2821053,28.3218863 61.4390977,27.7605305 62.2854135,22.7101305 C62.8303759,21.7090611 63.6369925,19.7348547 62.9765414,17.6930695 C62.7753383,17.0668379 62.392782,16.3126568 61.6745865,15.6332632 C61.672782,15.0322611 61.552782,14.4348632 61.2793985,13.8825179 C61.2099248,13.0193095 60.9437594,11.8614568 60.1046617,10.9162526 C59.2980451,10.0106947 58.1449624,9.50880842 56.8547368,9.50790737 C56.4757895,9.32048842 56.0598496,9.19073684 55.6159398,9.12586105 C54.6595489,7.78239158 53.1645113,7.01018947 51.3708271,7.01018947 C50.2989474,7.01018947 49.3281203,7.28230737 48.7100752,7.50847158 C45.1046617,7.58596211 43.5455639,9.13306947 42.8733835,10.4368926 C41.9115789,12.2966653 42.3663158,14.3654821 43.0150376,15.9116884 C41.3855639,17.1929853 38.9070677,19.0851958 37.0781955,20.4142484 C36.4484211,19.4978779 35.5407519,18.1472 35.4938346,17.9174316 C35.4415038,17.6516211 36.3040602,17.4209516 37.2541353,15.2962695 C38.357594,12.8336926 37.4138346,8.98079158 36.882406,10.0980968 C36.3500752,11.2136 35.9359398,15.0268547 33.967218,16.5153937 C32.4920301,17.6299958 34.0619549,20.5043537 34.9416541,21.8739537 C34.9190977,21.8865684 34.8884211,21.9054905 34.8685714,21.9154021 C34.6258647,22.0379453 34.3488722,22.1830147 34.0664662,22.3325895 C33.2950376,20.8566653 31.7810526,18.3120926 30.1858647,17.5795368 C28.7918797,16.9397895 27.2950376,15.7558063 26.2574436,14.9133221 C31.5347368,10.5603368 37.5347368,5.58112 41.5037594,0 C32.5921805,11.3091116 18.5359398,15.0628968 13.5338346,26.1305263 C13.4255639,26.3702063 13.3335338,26.5972716 13.2396992,26.8252379 C13.1332331,26.9171453 13.0384962,27.0045474 12.9681203,27.0793347 C12.3437594,27.2099874 11.361203,27.4541726 9.84451128,27.8740632 C4.2162406,29.4319832 3.18586466,32.7298358 1.89744361,34.3553347 C-0.461954887,38.7434611 0.381654135,44.0903074 1.16571429,45.2634779 C2.91789474,43.7028547 5.8312782,40.4320337 7.38766917,38.6506526 C7.23789474,40.16352 6.51338346,43.656 3.05864662,46.2492295 C3.05864662,46.2492295 3.32300752,46.2825684 3.76601504,46.2825684 C5.69413534,46.2825684 10.997594,45.6257011 12.5323308,38.7209347 C12.5603008,39.01648 12.6938346,39.1462316 12.8986466,39.1462316 C13.1972932,39.1462316 13.6511278,38.8705095 14.1554887,38.4551242 L14.3512782,40.7978611 C14.4920301,42.4810274 15.9509774,44.2687158 18.3771429,44.2687158 C18.6433083,44.2687158 18.9166917,44.2479916 19.1981955,44.2056421 C16.3488722,45.9590905 11.3476692,48.8532716 8.08150376,49.7020632 C3.29684211,50.9437137 16.2180451,49.3191158 21.673985,43.3919916 L21.6712782,43.3874863 C21.7795489,43.3361263 21.8806015,43.29648 21.9906767,43.2415158 L22.0809023,43.1964632 L22.1657143,43.1442021 C22.3786466,43.0162526 22.5807519,42.8892042 22.7738346,42.7630568 C23.0210526,43.0387789 23.2601504,43.3072926 23.4821053,43.5595874 C22.7639098,44.2921432 22.0989474,45.0823663 21.7001504,45.7338274 C15.8246617,50.7571958 12.723609,61.2391411 14.5984962,57.0456421 C15.84,54.2685979 18.9590977,50.3769516 21.1750376,47.7927326 C21.2517293,48.9947368 21.9293233,50.0624842 22.6709774,50.7328674 L26.0607519,53.7928421 L27.0153383,49.7984758 C27.2228571,49.6362863 27.5584962,49.4227368 27.8255639,49.2857768 L28.0439098,49.1758484 C28.0366917,49.9345347 28.1169925,50.8698274 28.4264662,51.7834947 C26.8285714,53.1576 25.323609,54.93808 26.4902256,55.0597221 C17.992782,56.9447242 18.96,64.5243789 18.96,64.5243789 C21.5557895,61.0760505 25.0529323,60.3507032 26.5705263,60.2002274 C24.7876692,61.7536421 21.5115789,64.6640421 19.9470677,66.4138863 C20.5461654,66.8112505 22.2270677,67.2257347 24.3103759,67.2257347 C26.3233083,67.2257347 28.7133835,66.8400842 30.8706767,65.6831326 C32.4992481,64.3955284 35.8015038,63.3665263 37.3606015,57.7466611 C37.7485714,56.3491284 37.9813534,55.4210442 38.1193985,54.7930105 C49.9218045,51.8889179 56.2989474,37.4540547 69.0189474,32.4928589 L69.0189474,32.4928589 Z M31.037594,52.0664253 C31.1142857,52.0213726 31.1882707,51.9808253 31.2487218,51.9546947 C31.3596992,51.9366737 31.5870677,51.9159495 31.9154887,51.9159495 L33.3924812,51.9159495 L33.7317293,50.4688589 C34.2487218,47.9044632 35.5308271,46.2366147 37.5446617,45.5139705 L38.4757895,45.1778779 L38.6932331,44.2146526 C38.7293233,44.0569684 38.756391,43.9046905 38.7807519,43.75872 C39.1633083,44.2705179 39.4393985,44.5282189 39.6324812,44.6723874 C39.7723308,45.0111832 39.9320301,45.9969347 39.4944361,47.2475958 C39.4312782,47.4260042 39.3726316,47.5701726 39.3193985,47.6864084 L37.2911278,46.8610442 L37.6980451,49.9363368 C37.9876692,52.1213895 37.1765414,53.0729011 36.9221053,53.3134821 L36.9031579,53.3315032 L36.4132331,53.0873179 L36.4087218,53.0963284 L36.8959398,53.3387116 L36.8661654,53.3666442 C35.2141353,53.6009179 32.5245113,53.6757053 31.037594,52.0664253 L31.037594,52.0664253 Z M47.7374436,39.9166316 C48.1786466,42.0241937 49.6790977,43.6208589 50.8285714,44.4624421 C46.2694737,48.3730105 42.2589474,51.8970274 39.243609,52.8539453 C39.5106767,52.0736337 39.6667669,51.0473347 39.4881203,49.7002611 C39.4881203,49.7002611 39.5476692,49.7227874 39.6478195,49.7227874 C39.9464662,49.7227874 40.6123308,49.5137432 41.198797,47.8413895 C41.9819549,45.6058779 41.4406015,43.6541979 40.7693233,43.2631411 C40.4589474,43.0820295 39.9717293,42.3467705 39.5359398,41.6070063 C40.3488722,40.9113937 41.1112782,40.1878484 41.8177444,39.4534905 C43.6141353,40.7203705 44.6075188,42.1161011 44.6075188,42.1161011 C44.3684211,46.4961179 44.7618045,48.9514863 44.9891729,48.0567411 C45.1849624,47.2908463 46.5699248,44.4291032 46.4102256,41.9205726 C46.281203,39.8832926 44.6490226,38.3460968 43.5581955,37.5360505 C43.7981955,37.25312 44.0165414,36.9828042 44.2348872,36.7106863 C46.3037594,38.1037137 47.7374436,39.9166316 47.7374436,39.9166316 L47.7374436,39.9166316 Z M44.9936842,31.4242105 C44.0102256,27.6235705 39.4917293,23.8418526 38.2745865,22.8822316 C39.4628571,22.0307368 40.916391,20.9404632 42.2724812,19.9015495 C44.2312782,21.6369768 47.8294737,25.2357811 48.0234586,28.3435116 C46.8992481,29.4527074 45.8030075,30.5610021 44.9936842,31.4242105 L44.9936842,31.4242105 Z M48.995188,10.2080253 C49.076391,10.2080253 49.161203,10.2089263 49.2442105,10.2107284 C49.2442105,10.2107284 50.2673684,9.71244632 51.3717293,9.71244632 C52.4309774,9.71244632 53.566015,10.1710821 53.9422556,11.9686821 C53.9422556,11.9686821 54.4249624,11.7821642 54.9536842,11.7821642 C55.3714286,11.7821642 55.8162406,11.8974989 56.0796992,12.3101811 C56.3657143,12.2408 56.6219549,12.2110653 56.8475188,12.2110653 C58.8830075,12.2110653 58.5798496,14.7349137 58.5798496,14.7349137 C59.4252632,15.4602611 58.6132331,16.8956379 58.6132331,16.8956379 C62.1428571,18.1805389 59.6851128,21.7910568 59.6851128,21.7910568 C59.3215038,24.7365979 58.1729323,25.6187284 56.9269173,25.6187284 C55.0574436,25.6187284 52.9678195,23.6319074 52.9678195,23.6319074 C52.962406,23.6364126 52.9452632,23.6508295 52.9380451,23.6571368 C51.472782,19.6105095 46.161203,15.8639326 45.9058647,15.6738105 C44.9566917,13.9095495 43.6051128,10.2080253 48.995188,10.2080253 L48.995188,10.2080253 Z M46.1548872,16.8514863 C47.6309774,18.01024 51.3239098,21.1711326 52.2081203,24.3131032 C51.4078195,25.0555705 50.1049624,26.3008253 48.7434586,27.6334821 C48.3112782,24.4005053 44.9909774,21.0539958 43.0195489,19.3266779 C44.4189474,18.2472168 45.6099248,17.3056168 46.1548872,16.8514863 L46.1548872,16.8514863 Z M25.4742857,15.5611789 C26.1157895,16.8316632 27.4285714,18.5553768 29.4126316,19.3428968 C29.4126316,19.3428968 30.8778947,21.3098947 31.8261654,23.6093811 C31.5609023,23.7706695 31.2929323,23.9382653 31.0177444,24.1139705 C30.4439098,22.9209768 29.1843609,20.7548463 27.4276692,20.3358568 C24.9798496,19.7510737 21.6992481,20.59536 20.9106767,20.6557305 C19.9894737,20.7278147 22.3425564,21.5324547 26.7058647,22.0460547 C26.7058647,22.0460547 28.0213534,23.3633937 28.9777444,25.5024926 C28.5130827,25.8412884 28.0502256,26.1981053 27.5882707,26.5720421 C26.9702256,26.2539705 24.6866165,25.0519663 24.3482707,24.4716884 C24.0947368,24.0373811 23.1825564,23.6571368 21.9618045,23.6571368 C21.2995489,23.6571368 20.5497744,23.7688674 19.7621053,24.0436884 C17.523609,24.8267032 17.9025564,25.7520842 17.9025564,25.7520842 C17.4956391,25.6980211 17.117594,25.6736926 16.764812,25.6736926 C16.281203,25.6736926 15.8562406,25.7250526 15.4700752,25.8007411 C16.6366917,22.9335916 20.6851128,19.5140968 25.4742857,15.5611789 L25.4742857,15.5611789 Z M14.6102256,28.0416589 C14.992782,27.7776505 15.6667669,27.4757979 16.7666165,27.4757979 C17.0517293,27.4757979 17.3548872,27.4956211 17.6670677,27.5379705 L20.7509774,27.9443453 L19.9218045,25.9178779 C20.0372932,25.8647158 20.1816541,25.8070484 20.361203,25.7439747 C20.8935338,25.5574568 21.4484211,25.4592421 21.9627068,25.4592421 C22.4571429,25.4592421 22.7873684,25.5493474 22.9389474,25.6088168 C23.0842105,25.8016421 23.3404511,26.0782653 23.8529323,26.4567074 C23.7040602,26.4792337 23.5515789,26.5098695 23.396391,26.5441095 L22.4318797,26.7612632 L22.0953383,27.6911495 C21.3708271,29.7013979 19.7016541,30.9817937 17.1338346,31.4989979 L15.677594,31.7909389 L15.684812,33.2740716 C15.6866165,33.6227789 15.6631579,33.8624589 15.646015,33.9786947 C15.6433083,33.9841011 15.6378947,33.9931116 15.635188,33.9976168 C13.7458647,32.4982653 14.078797,29.8482695 14.6102256,28.0416589 L14.6102256,28.0416589 Z M17.4,34.4121011 C17.4532331,34.1634105 17.4911278,33.7579368 17.4884211,33.2650611 C21.9184962,32.37392 23.3070677,29.6482358 23.7942857,28.3011621 C24.127218,28.2263747 24.4078195,28.1957389 24.6451128,28.1957389 C25.0682707,28.1957389 25.3497744,28.2921516 25.5410526,28.4056842 C25.238797,28.7048337 24.9329323,29.0021811 24.6469173,29.3175495 L24.5693233,29.4040505 L24.4989474,29.49776 C22.5536842,32.0576505 20.9557895,33.9462568 19.8,35.2419705 L19.8496241,35.1410526 C18.8084211,35.1374484 17.9548872,35.0113011 17.2457143,34.7995537 C17.318797,34.6526821 17.3765414,34.5175242 17.4,34.4121011 L17.4,34.4121011 Z M7.89744361,43.2243958 C8.8637594,41.2952421 9.13353383,39.5201684 9.20661654,38.5650526 C9.73533835,37.9568421 10.0700752,37.7757305 10.1918797,37.7252716 C10.3488722,37.8496168 10.567218,38.19472 10.7278195,38.5569432 C10.1630075,40.9131958 9.09203008,42.35488 7.89744361,43.2243958 L7.89744361,43.2243958 Z M13.4526316,36.6818526 C12.8075188,36.0493137 11.6977444,35.5330105 9.79488722,35.5330105 C8.93413534,35.5330105 8.24120301,35.6384337 8.16631579,35.6501474 L7.50586466,35.7546695 L7.07278195,36.2610611 C7.03759398,36.3034105 4.47609023,39.3003116 2.18796992,41.7160337 C2.08601504,39.9220379 2.29984962,37.4991074 3.42225564,35.33568 C3.67759398,34.9968842 3.90947368,34.63376 4.15308271,34.2535158 C5.21774436,32.5829642 6.42676692,30.6916547 10.327218,29.6130947 C11.1924812,29.3725137 11.9070677,29.1850947 12.4935338,29.0418274 C11.5822556,32.6730695 12.7795489,34.6382653 14.3837594,35.6997053 C14.0769925,36.0475116 13.7530827,36.3926147 13.4526316,36.6818526 L13.4526316,36.6818526 Z M15.0180451,37.6621979 C15.3834586,37.2927663 15.7452632,36.8908968 16.0745865,36.4908295 C16.9154887,36.7611453 17.7112782,36.8719747 18.2517293,36.9161263 C18.1642105,37.0062316 18.073985,37.09904 18.0117293,37.1603116 C17.5569925,37.4207158 17.0742857,37.6766147 16.753985,37.8288926 L15.0180451,37.6621979 L15.0180451,37.6621979 Z M26.6084211,46.8727579 C26.6084211,46.8727579 24.7001504,47.8323789 24.4863158,48.7298274 C24.4863158,48.7298274 23.6291729,47.9549221 23.9269173,47.2719242 C24.2273684,46.5880253 26.3936842,44.3561179 27.204812,43.8866695 C26.9368421,43.2270989 22.9894737,38.9948547 22.9894737,38.9948547 C22.9894737,38.9948547 22.7269173,39.6490189 20.767218,40.8312 C19.687218,41.3763368 18.9203008,41.5664589 18.3762406,41.5664589 C17.1311278,41.5664589 17.047218,40.5744 17.047218,40.5744 L17.0697744,40.5744 C17.5452632,40.5744 19.6664662,39.3282442 19.6664662,39.3282442 C19.6664662,39.3282442 22.3777444,36.75664 26.6544361,31.1295663 C29.8222556,27.63168 34.4409023,25.1591916 36.0902256,24.3284211 C36.3807519,24.1815495 36.8833083,23.8553684 37.5049624,23.4246653 C38.237594,23.9896253 43.7323308,28.3489179 44.2403008,32.2576842 C44.0616541,32.4640253 43.9082707,32.6487411 43.8171429,32.7793937 C42.7578947,34.2895579 39.6487218,38.50288 35.7284211,41.1339537 C29.5425564,44.5588547 26.6084211,46.8727579 26.6084211,46.8727579 L26.6084211,46.8727579 Z M30.038797,47.7485811 C31.4652632,46.7844547 33.766015,45.3157389 36.9789474,43.5343579 C36.963609,43.6289684 36.9581955,43.7127663 36.9338346,43.8172884 C35.5822556,44.3020547 32.8547368,45.6896758 31.9642105,50.1129432 L31.9154887,50.1129432 C31.4427068,50.1129432 31.0547368,50.1489853 30.8129323,50.2021474 C30.6514286,50.2372884 30.4321805,50.3373053 30.1768421,50.4859789 C29.9693233,49.7552253 29.9052632,48.8559747 30.038797,47.7485811 L30.038797,47.7485811 Z M26.6652632,56.8636295 C27.0243609,57.0240168 27.3726316,57.2429726 27.4971429,57.4006568 C27.4475188,57.5222989 27.2670677,57.8565895 26.6580451,58.3837053 C25.6917293,58.4521853 23.9278195,58.7161937 22.0096241,59.6749137 C22.873985,58.5080505 24.3058647,57.4303916 26.6652632,56.8636295 L26.6652632,56.8636295 Z M30.9762406,63.4323032 C30.5936842,63.6755874 30.2291729,63.9062568 29.8908271,64.1612547 C27.8806015,65.2037726 25.7530827,65.4245305 24.3094737,65.4245305 C24.0243609,65.4245305 23.752782,65.41552 23.4956391,65.4002021 C25.9154887,63.1142316 28.9218045,60.5507368 28.9642105,60.5164968 L29.4712782,60.0839916 L29.5759398,59.4262232 C29.6977444,58.6486147 30.0018045,55.9896084 28.7720301,54.4199747 C28.6980451,54.3244632 28.6186466,54.2343579 28.5356391,54.15056 C28.7657143,53.9117811 29.0309774,53.6585853 29.3061654,53.4116968 C30.4204511,54.784 32.4766917,55.7066779 36.1768421,55.1750568 C36.0342857,55.7481263 35.8520301,56.4365305 35.6219549,57.2664 C34.5401504,61.1616505 32.647218,62.3690611 30.9762406,63.4323032 L30.9762406,63.4323032 Z"></path>
                        <ellipse cx="25.5482707" cy="37.5450611" rx="1.8324812" ry="1.83003789"></ellipse>
                        <ellipse cx="29.1590977" cy="41.1492716" rx="1.8324812" ry="1.83003789"></ellipse>
                    </g>
                </g>
                <g transform="translate(122.000000, 19.000000)" fill="#FFFFFF">
                    <path d="M20.716,0.982 C19.923,0.921 19.069,0.86 18.154,0.86 C8.882,0.86 0.037,7.326 0.037,15.561 C0.037,20.38 3.087,22.637 7.967,22.637 C7.479,21.905 5.832,20.136 5.832,15.744 C5.832,10.742 8.028,7.143 11.871,5.252 L11.871,47.464 C12.359,47.403 12.786,47.403 13.274,47.403 C23.888,47.403 33.282,61.25 40.968,61.25 C45.543,61.25 47.739,56.431 47.739,52.771 C47.739,52.405 47.739,52.039 47.678,51.673 C46.092,52.405 44.384,52.649 42.859,52.649 C34.99,52.649 27.365,46.305 20.716,44.841 L20.716,0.982 Z"></path>
                    <path d="M41.517,15.195 C30.964,15.195 28.463,25.626 28.463,32.58 C28.463,42.889 33.892,46.366 39.87,46.366 C48.654,46.366 51.765,38.863 51.765,29.469 C51.765,28.92 51.765,28.371 51.704,27.822 C55.425,27.09 59.451,25.382 61.159,22.82 L60.244,21.173 C57.926,23.125 54.144,24.833 51.887,24.833 L51.46,24.833 C50.484,18.123 47.068,15.195 41.517,15.195 Z M41.578,40.632 C39.748,40.632 37.43,39.29 37.43,31.97 C37.43,26.297 38.833,18.855 42.432,18.855 C43.347,18.855 44.811,19.404 45.665,22.149 C44.75,22.454 44.14,23.308 44.14,25.016 C44.14,26.419 44.506,27.639 46.519,28.066 L46.519,28.981 C46.519,35.63 45.055,40.632 41.578,40.632 Z"></path>
                    <path d="M105.018,35.081 C104.103,35.996 102.761,37.155 101.358,38.07 C101.297,31.787 98.979,29.347 94.953,13.609 L86.169,14.829 C84.156,20.258 81.899,23.613 79.215,24.406 C77.934,18.428 74.396,15.195 69.821,15.195 C68.418,15.195 67.259,15.5 65.063,17.025 L65.063,3.3 L56.279,4.52 L56.279,36.911 C56.279,42.645 59.512,46.366 66.344,46.366 C77.263,46.366 79.703,36.85 79.703,29.652 C79.703,28.859 79.642,28.127 79.581,27.395 C82.814,26.114 85.437,23.43 87.328,19.221 C90.622,30.689 92.513,32.702 92.513,38.131 C92.513,40.632 91.537,41.547 89.524,41.547 C87.206,41.547 85.62,39.839 85.01,36.972 C85.437,37.582 86.23,37.765 86.84,37.765 C88.243,37.765 89.219,36.728 89.219,35.447 C89.219,33.556 87.938,32.458 85.437,32.458 C83.668,32.458 82.143,34.166 82.143,36.911 C82.143,41.974 85.254,46.366 92.513,46.366 C95.624,46.366 98.918,45.268 100.443,42.279 C102.7,40.632 105.323,38.436 107.58,35.081 L105.018,35.081 Z M73.42,30.201 C73.42,34.837 72.383,40.449 68.113,40.449 C66.344,40.449 65.063,39.473 65.063,36.85 L65.063,20.746 C65.673,20.014 67.259,19.648 68.235,19.648 C69.882,19.648 71.224,20.807 72.139,22.82 C71.834,23.247 71.651,23.857 71.651,24.589 C71.651,26.236 72.2,27.395 73.298,27.944 C73.359,28.676 73.42,29.408 73.42,30.201 Z"></path>
                    <path d="M104.225,7.082 L104.225,15.5 L102.273,15.5 L102.273,17.94 L104.225,17.94 L104.225,36.911 C104.225,42.584 106.421,46.366 112.704,46.366 C115.998,46.366 121.732,45.024 123.074,35.081 L120.512,35.081 C120.268,38.131 118.56,40.449 116.181,40.449 C113.802,40.449 113.009,39.656 113.009,36.24 L113.009,17.94 L116.73,17.94 L116.73,15.5 L113.009,15.5 L113.009,5.862 L104.225,7.082 Z"></path>
                    <path d="M134.42,41.242 C130.028,41.242 128.564,39.107 128.442,33.678 C134.481,33.373 140.398,29.53 140.398,22.271 C140.398,20.99 140.215,15.195 132.468,15.195 C122.281,15.195 119.536,25.321 119.536,32.397 C119.536,42.34 124.538,46.366 131.553,46.366 C139.849,46.366 143.753,40.693 146.01,35.081 L143.936,35.081 C141.618,38.558 139.361,41.242 134.42,41.242 Z M135.701,22.332 C135.701,26.846 132.529,30.445 128.442,30.75 C128.747,24.162 130.638,18.428 133.383,18.428 C134.542,18.428 135.701,19.526 135.701,22.332 Z"></path>
                    <path d="M143.936,15.5 L143.936,46 L152.72,46 L152.72,22.82 C154.001,21.417 155.16,20.38 156.38,20.38 C158.698,20.38 157.356,24.223 161.016,24.223 C163.517,24.223 164.554,22.393 164.554,20.624 C164.554,18.062 162.358,15.195 159.308,15.195 C156.746,15.195 154.489,17.147 152.72,19.282 L152.72,15.5 L143.936,15.5 Z"></path>
                    <path d="M210.975,35.02 C208.962,38.863 204.997,41.425 200.422,41.425 C194.566,41.425 189.93,37.216 189.93,23.674 C189.93,13.487 192.553,3.117 198.043,3.117 C200.605,3.117 202.313,5.435 202.313,8.058 C202.313,9.766 201.581,11.84 200.544,12.45 C202.008,13.792 203.411,14.036 204.387,14.036 C206.888,14.036 207.681,12.328 207.681,9.888 C207.681,3.361 202.069,0.25 195.969,0.25 C183.403,0.25 179.987,13.609 179.987,24.65 C179.987,39.534 186.148,46.976 196.579,46.976 C204.265,46.976 210.731,42.95 212.5,35.63 L210.975,35.02 Z"></path>
                    <path d="M226.286,27.517 C226.286,29.164 226.164,33.495 226.164,34.959 C226.164,41.852 228.787,46.366 235.07,46.366 C238.669,46.366 242.878,44.902 244.159,35.081 L241.597,35.081 C240.926,38.192 240.377,40.449 237.571,40.449 C235.07,40.449 234.399,38.68 234.399,35.203 C234.399,33.129 234.643,28.615 234.643,26.48 C234.643,17.94 230.739,15.256 226.103,15.256 C224.029,15.256 221.467,15.805 219.576,18.672 L219.576,3.3 L210.792,4.52 L210.792,46 L219.576,46 L219.576,26.419 C219.82,23.613 220.735,20.807 223.175,20.807 C225.188,20.807 226.286,22.698 226.286,27.517 L226.286,27.517 Z"></path>
                    <path d="M257.945,15.5 L257.945,18.428 C256.908,15.561 254.224,15.195 252.211,15.195 C243.732,15.195 240.56,24.772 240.56,32.214 C240.56,42.828 246.172,46.366 251.296,46.366 C255.627,46.366 257.884,43.56 259.165,40.754 C260.019,44.231 262.154,46.366 266.424,46.366 C269.718,46.366 275.452,45.024 276.794,35.081 L274.232,35.081 C273.988,38.131 272.28,40.449 269.901,40.449 C267.522,40.449 266.729,39.656 266.729,36.24 L266.729,15.5 L257.945,15.5 Z M257.945,35.081 C257.945,38.619 255.749,40.449 253.98,40.449 C252.455,40.449 249.466,40.327 249.466,31.665 C249.466,26.358 250.991,18.977 254.956,18.977 C256.969,18.977 257.762,20.685 257.945,21.356 L257.945,35.081 Z"></path>
                    <path d="M273.927,7.082 L273.927,15.5 L271.975,15.5 L271.975,17.94 L273.927,17.94 L273.927,36.911 C273.927,42.584 276.123,46.366 282.406,46.366 C285.395,46.366 287.652,44.597 287.652,41.242 C287.652,40.815 287.652,40.388 287.591,39.961 C287.286,40.205 286.798,40.449 285.883,40.449 C283.504,40.449 282.711,39.656 282.711,36.24 L282.711,17.94 L286.371,17.94 L286.371,15.5 L282.711,15.5 L282.711,5.862 L273.927,7.082 Z"></path>
                </g>
            </g>
        </g>
    </g>
</svg>