<?xml version="1.0" encoding="UTF-8" standalone="no"?>
<svg width="163px" height="31px" viewBox="0 0 163 31" version="1.1" xmlns="http://www.w3.org/2000/svg" xmlns:xlink="http://www.w3.org/1999/xlink">
    <defs></defs>
    <g stroke="none" stroke-width="1" fill="none" fill-rule="evenodd">
        <g transform="translate(-41.000000, -165.000000)">
            <g transform="translate(41.000000, 165.000000)">
                <g transform="translate(38.000000, 4.000000)" fill="#FFFFFF">
                    <path d="M8.87288554,0.782800983 C8.53262739,0.756265356 8.16619554,0.72972973 7.77358999,0.72972973 C3.79518703,0.72972973 0,3.54250614 0,7.12481572 C0,9.22113022 1.30868518,10.2029484 3.40258148,10.2029484 C3.19319185,9.88452088 2.48650185,9.11498771 2.48650185,7.2044226 C2.48650185,5.02850123 3.42875518,3.46289926 5.07769851,2.64029484 L5.07769851,21.0029484 C5.28708814,20.9764128 5.47030406,20.9764128 5.67969369,20.9764128 C10.2339181,20.9764128 14.2646685,27 17.5625552,27 C19.5255829,27 20.4678363,24.9036855 20.4678363,23.3115479 C20.4678363,23.1523342 20.4678363,22.9931204 20.4416626,22.8339066 C19.7611463,23.1523342 19.0282826,23.2584767 18.37394,23.2584767 C14.9975322,23.2584767 11.7258192,20.4987715 8.87288554,19.8619165 L8.87288554,0.782800983 Z"></path>
                    <path d="M17.9720913,6.56756757 C13.4892969,6.56756757 12.4269006,11.2072777 12.4269006,14.3004178 C12.4269006,18.8858624 14.733078,20.4324324 17.2724644,20.4324324 C21.0038077,20.4324324 22.3253251,17.0950971 22.3253251,12.9166446 C22.3253251,12.6724494 22.3253251,12.4282541 22.299413,12.1840588 C23.8800515,11.8584651 25.5902505,11.0987465 26.3157895,9.95916856 L25.9271079,9.22658275 C24.9424478,10.0948326 23.3358973,10.8545512 22.3771493,10.8545512 L22.1957646,10.8545512 C21.7811709,7.86994235 20.330093,6.56756757 17.9720913,6.56756757 Z M17.9980034,17.8819485 C17.2206402,17.8819485 16.2359802,17.2850267 16.2359802,14.0290898 C16.2359802,11.5057386 16.8319586,8.19553604 18.3607729,8.19553604 C18.7494545,8.19553604 19.371345,8.43973132 19.7341145,9.66070767 C19.3454329,9.79637171 19.0863119,10.176231 19.0863119,10.9359496 C19.0863119,11.5600042 19.2417845,12.1026604 20.096884,12.29259 L20.096884,12.6995822 C20.096884,15.6570582 19.4749935,17.8819485 17.9980034,17.8819485 Z"></path>
                    <path d="M44.9574441,15.460761 C44.5663058,15.8638695 43.9926362,16.3744736 43.3928907,16.7775821 C43.3668148,14.0095705 42.3759309,12.9346145 40.6549221,6.00114846 L36.8999937,6.53862645 C36.0394893,8.93040349 35.0746814,10.408468 33.9273421,10.7578287 C33.3797484,8.12418651 31.8673467,6.69986984 29.9116549,6.69986984 C29.3119094,6.69986984 28.8164674,6.83423934 27.8777354,7.50608682 L27.8777354,1.45945946 L24.122807,1.99693745 L24.122807,16.266978 C24.122807,18.7931246 25.5048293,20.4324324 28.4253291,20.4324324 C33.0929136,20.4324324 34.1359493,16.2401041 34.1359493,13.068984 C34.1359493,12.7196233 34.1098734,12.3971365 34.0837975,12.0746497 C35.4658197,11.5102978 36.587083,10.3278463 37.3954357,8.4735472 C38.8035338,13.5258403 39.6118864,14.412679 39.6118864,16.804456 C39.6118864,17.9062859 39.1946722,18.3093944 38.3341678,18.3093944 C37.3432839,18.3093944 36.6653107,17.5569252 36.4045518,16.2938519 C36.587083,16.5625909 36.9260696,16.6432126 37.1868285,16.6432126 C37.786574,16.6432126 38.2037883,16.1863563 38.2037883,15.6220044 C38.2037883,14.7889136 37.6561946,14.3051834 36.587083,14.3051834 C35.8308822,14.3051834 35.1789849,15.0576526 35.1789849,16.266978 C35.1789849,18.4975117 36.5088554,20.4324324 39.6118864,20.4324324 C40.9417569,20.4324324 42.349855,19.9487022 43.0017523,18.6318812 C43.9665603,17.9062859 45.0878236,16.9388255 46.0526316,15.460761 L44.9574441,15.460761 Z M31.4501325,13.3108491 C31.4501325,15.3532654 31.0068423,17.8256642 29.1815299,17.8256642 C28.4253291,17.8256642 27.8777354,17.3956818 27.8777354,16.2401041 L27.8777354,9.14539469 C28.1384943,8.82290789 28.8164674,8.6616645 29.2336817,8.6616645 C29.9377308,8.6616645 30.5114004,9.17226859 30.9025387,10.0591073 C30.7721593,10.2472246 30.6939316,10.5159636 30.6939316,10.8384503 C30.6939316,11.5640456 30.9286146,12.0746497 31.3979807,12.3165148 C31.4240566,12.6390016 31.4501325,12.9614884 31.4501325,13.3108491 Z"></path>
                    <path d="M45.4138156,3.44643439 L45.4138156,7.08629111 L44.5906433,7.08629111 L44.5906433,8.14132204 L45.4138156,8.14132204 L45.4138156,16.3441876 C45.4138156,18.7971345 46.3398844,20.4324324 48.9894703,20.4324324 C50.3785735,20.4324324 52.7966421,19.8521654 53.3625731,15.5529144 L52.2821595,15.5529144 C52.1792629,16.871703 51.4589872,17.8739824 50.4557459,17.8739824 C49.4525047,17.8739824 49.1180909,17.5310974 49.1180909,16.0540541 L49.1180909,8.14132204 L50.6872631,8.14132204 L50.6872631,7.08629111 L49.1180909,7.08629111 L49.1180909,2.91891892 L45.4138156,3.44643439 Z"></path>
                    <path d="M58.4761635,18.1532766 C56.5358288,18.1532766 55.8890506,17.2036283 55.8351524,14.7888084 C58.5031126,14.6531443 61.1171747,12.9437774 61.1171747,9.71497329 C61.1171747,9.14518432 61.0363274,6.56756757 57.6137925,6.56756757 C53.113294,6.56756757 51.9005848,11.0716137 51.9005848,14.2190194 C51.9005848,18.6416671 54.1104104,20.4324324 57.2095561,20.4324324 C60.8746328,20.4324324 62.5993748,17.9090813 63.5964912,15.412863 L62.6802221,15.412863 C61.6561565,16.959433 60.6590401,18.1532766 58.4761635,18.1532766 Z M59.0420945,9.7421061 C59.0420945,11.7499339 57.6407416,13.3507696 55.8351524,13.4864336 C55.9698979,10.5560903 56.8053198,8.00560639 58.0180289,8.00560639 C58.5300617,8.00560639 59.0420945,8.49399693 59.0420945,9.7421061 Z"></path>
                    <path d="M62.1345029,6.70484346 L62.1345029,20.4324324 L65.8716565,20.4324324 L65.8716565,9.99946481 C66.416658,9.36799572 66.9097547,8.90125769 67.4288038,8.90125769 C68.4149971,8.90125769 67.844043,10.6309339 69.4011904,10.6309339 C70.465241,10.6309339 70.9064327,9.80727857 70.9064327,9.01107841 C70.9064327,7.85796093 69.9721444,6.56756757 68.6745216,6.56756757 C67.5845185,6.56756757 66.6242777,7.44613326 65.8716565,8.40706449 L65.8716565,6.70484346 L62.1345029,6.70484346 Z"></path>
                    <path d="M91.4538143,15.2042905 C90.5939019,16.8847647 88.900135,18.0050808 86.9457885,18.0050808 C84.444225,18.0050808 82.4638206,16.1645614 82.4638206,10.2428904 C82.4638206,5.78830005 83.5843126,1.25368711 85.9295283,1.25368711 C87.0239623,1.25368711 87.753585,2.26730647 87.753585,3.4142968 C87.753585,4.16117423 87.4408896,5.06809682 86.9979044,5.33483876 C87.6232953,5.92167102 88.2226282,6.02836779 88.6395554,6.02836779 C89.7079315,6.02836779 90.0466849,5.28149037 90.0466849,4.21452262 C90.0466849,1.36038388 87.6493532,0 85.0435579,0 C79.6756196,0 78.2163743,5.84164844 78.2163743,10.6696775 C78.2163743,17.1781808 80.8482275,20.4324324 85.3041375,20.4324324 C88.5874395,20.4324324 91.3495825,18.6719356 92.1052632,15.4710324 L91.4538143,15.2042905 Z"></path>
                    <path d="M98.1630264,12.1283975 C98.1630264,12.8539928 98.1095716,14.7620397 98.1095716,15.4070132 C98.1095716,18.4437639 99.2588494,20.4324324 102.011771,20.4324324 C103.588687,20.4324324 105.432877,19.7874588 105.994152,15.460761 L104.871602,15.460761 C104.5776,16.8313299 104.337054,17.8256642 103.107594,17.8256642 C102.011771,17.8256642 101.717769,17.0463211 101.717769,15.5145088 C101.717769,14.6007963 101.824679,12.6121277 101.824679,11.6715412 C101.824679,7.90919531 100.114126,6.72674374 98.0828442,6.72674374 C97.1741129,6.72674374 96.0515625,6.96860884 95.2230134,8.23168211 L95.2230134,1.45945946 L91.374269,1.99693745 L91.374269,20.271189 L95.2230134,20.271189 L95.2230134,11.6446673 C95.3299229,10.408468 95.7308338,9.17226859 96.7999294,9.17226859 C97.6819334,9.17226859 98.1630264,10.0053595 98.1630264,12.1283975 L98.1630264,12.1283975 Z"></path>
                    <path d="M111.166489,6.70323161 L111.166489,8.00560639 C110.727155,6.73036442 109.590053,6.56756757 108.737226,6.56756757 C105.145017,6.56756757 103.80117,10.8274184 103.80117,14.137621 C103.80117,18.8587296 106.178747,20.4324324 108.349578,20.4324324 C110.184447,20.4324324 111.140646,19.1843233 111.683354,17.9362141 C112.045159,19.4827842 112.949672,20.4324324 114.758698,20.4324324 C116.154232,20.4324324 118.583496,19.8355107 119.152047,15.412863 L118.066631,15.412863 C117.963258,16.7695034 117.239648,17.8005501 116.231762,17.8005501 C115.223876,17.8005501 114.887914,17.4478236 114.887914,15.9283863 L114.887914,6.70323161 L111.166489,6.70323161 Z M111.166489,15.412863 C111.166489,16.9865658 110.236133,17.8005501 109.48668,17.8005501 C108.840599,17.8005501 107.574281,17.7462844 107.574281,13.8934257 C107.574281,11.5328714 108.220362,8.24980166 109.900171,8.24980166 C110.752998,8.24980166 111.08896,9.00952028 111.166489,9.30798117 L111.166489,15.412863 Z"></path>
                    <path d="M118.509227,3.44643439 L118.509227,7.08629111 L117.690058,7.08629111 L117.690058,8.14132204 L118.509227,8.14132204 L118.509227,16.3441876 C118.509227,18.7971345 119.430792,20.4324324 122.06749,20.4324324 C123.321842,20.4324324 124.269006,19.667535 124.269006,18.2168675 C124.269006,18.0322371 124.269006,17.8476066 124.243407,17.6629762 C124.115412,17.7684793 123.91062,17.8739824 123.526634,17.8739824 C122.528273,17.8739824 122.195485,17.5310974 122.195485,16.0540541 L122.195485,8.14132204 L123.731426,8.14132204 L123.731426,7.08629111 L122.195485,7.08629111 L122.195485,2.91891892 L118.509227,3.44643439 Z"></path>
                </g>
                <g>
                    <ellipse fill="#FFFFFF" cx="15.8935252" cy="15.5" rx="15.8935252" ry="15.5"></ellipse>
                    <g transform="translate(4.391632, 4.690789)" fill="#E74C3C">
                        <path d="M22.8532162,10.4924857 C20.851588,11.0880909 18.8499599,12.6741406 17.0798633,14.1490418 C16.8560992,13.7675868 16.5358387,13.2095161 16.4034922,12.7244775 C16.2323082,12.0959933 15.5412984,11.4718736 15.175329,11.1768352 C15.1890716,11.1585044 15.2052041,11.136973 15.2180504,11.1192241 C15.6070235,11.4130987 16.5244862,12.0194696 16.9881469,11.5978614 C17.5853491,11.0546299 18.8550386,11.1334814 19.2493892,11.0258244 C19.6440386,10.9184583 18.5099818,10.4051962 17.643008,10.6196374 C16.8952355,10.8046911 16.7587066,10.9609392 16.6747577,10.9289331 C16.5911075,10.8977998 16.1166918,10.5681366 15.8842639,10.4051962 C16.4055835,9.88524193 17.1198959,9.20438404 17.5975979,8.76066254 C17.9435509,8.96259219 18.3851041,9.14560912 18.8493624,9.14560912 C19.2980856,9.14560912 20.3434135,8.96433798 20.6236414,7.33347965 C20.8040867,7.01021763 21.0711696,6.37271351 20.8524843,5.71338702 C20.7858629,5.5111664 20.6591927,5.26762877 20.4213874,5.04824123 C20.4207899,4.85416763 20.381056,4.66125789 20.2905346,4.4828964 C20.2675309,4.20415202 20.1793995,3.83026211 19.9015615,3.52503991 C19.6344786,3.23262018 19.2526755,3.07055272 18.8254623,3.07026175 C18.6999871,3.00974105 18.5622632,2.96784211 18.4152779,2.94689263 C18.0986024,2.51306395 17.6035729,2.26370702 17.0096569,2.26370702 C16.6547414,2.26370702 16.3332859,2.35157842 16.1286418,2.42461061 C14.9348349,2.4496336 14.4185941,2.94922035 14.196025,3.37024658 C13.877557,3.97079816 14.0281272,4.6388536 14.2429288,5.13814939 C13.7033855,5.55190149 12.8827179,6.16292781 12.2771507,6.59210105 C12.0686229,6.29618974 11.7680799,5.86003333 11.7525449,5.78583728 C11.7352173,5.70000263 12.0208228,5.62551561 12.335407,4.93942035 C12.7007789,4.14421325 12.3882859,2.90004728 12.2123218,3.26084377 C12.0360591,3.62105833 11.8989326,4.85242184 11.2470591,5.33309588 C10.758602,5.69301947 11.2784279,6.62119754 11.5697096,7.06346421 C11.5622408,7.06753772 11.5520833,7.07364798 11.5455108,7.0768486 C11.4651469,7.11641982 11.3734305,7.16326518 11.2799216,7.21156535 C11.02449,6.73496482 10.5231867,5.91327991 9.99499583,5.67672544 C9.53342635,5.47014035 9.03779932,5.08781246 8.69423627,4.81576026 C10.4416278,3.41010877 12.4283184,1.80223667 13.7425218,0 C10.7917633,3.65190061 6.13752972,4.86406044 4.4812571,8.43798246 C4.44540704,8.51537912 4.41493449,8.58870228 4.38386445,8.6623164 C4.34861189,8.69199482 4.31724309,8.72021842 4.29394055,8.74436851 C4.08720523,8.78655842 3.76186596,8.86540991 3.25966641,9.00099956 C1.39606096,9.50407789 1.05488792,10.5690095 0.628272245,11.0939102 C-0.152960242,12.5109093 0.12637145,14.2374951 0.385985612,14.6163314 C0.966159031,14.1123802 1.93082431,13.0561775 2.44616888,12.4809399 C2.3965763,12.96947 2.15667967,14.09725 1.0127641,14.934647 C1.0127641,14.934647 1.10029799,14.9454127 1.24698448,14.9454127 C1.88541424,14.9454127 3.64146952,14.7332993 4.14964407,12.5036352 C4.15890534,12.5990717 4.20312041,12.6409706 4.27093677,12.6409706 C4.36982317,12.6409706 4.52009466,12.5519354 4.68709618,12.4178005 L4.75192503,13.1743093 C4.7985301,13.7178318 5.28160962,14.2951061 6.08494964,14.2951061 C6.17308103,14.2951061 6.26360242,14.2884139 6.35681257,14.2747386 C5.41335858,14.8409563 3.7573847,15.7755356 2.67590799,16.0496246 C1.09163423,16.4505742 5.37003976,15.9259645 7.17658387,14.0119973 L7.17568762,14.0105425 C7.21153768,13.9939575 7.24499773,13.981155 7.28144529,13.9634061 L7.31132033,13.9488579 L7.33940288,13.9319819 C7.40990799,13.8906649 7.4768281,13.8496389 7.5407607,13.8089038 C7.62261833,13.897939 7.7017872,13.9846466 7.77527982,14.0661168 C7.53747444,14.3026712 7.31729534,14.5578475 7.18524763,14.7682151 C5.23978455,16.3903445 4.21297917,19.7751393 4.83378266,18.4209886 C5.24486331,17.5242347 6.2776437,16.2675573 7.01137486,15.4330699 C7.03676865,15.8212171 7.26113025,16.1660105 7.50670314,16.3824884 L8.62910867,17.3706053 L8.94518667,16.0807578 C9.01389928,16.0283841 9.12503446,15.9594254 9.2134646,15.9151988 L9.28576221,15.8797011 C9.28337221,16.1246935 9.309961,16.4267151 9.41243241,16.7217535 C8.88334532,17.165475 8.38502953,17.7404217 8.7713139,17.7797019 C5.95768194,18.3884005 6.27794245,20.8359974 6.27794245,20.8359974 C7.13744756,19.7224746 8.29540439,19.4882479 8.79790269,19.4396568 C8.20757175,19.9412803 7.12280878,20.8810969 6.60477546,21.4461508 C6.80314578,21.5744663 7.35971791,21.7083102 8.04953275,21.7083102 C8.71604506,21.7083102 9.50743506,21.5837772 10.2217474,21.2101782 C10.760992,20.7943894 11.8544188,20.4621075 12.3706596,18.6473593 C12.4991223,18.1960727 12.5761999,17.8963789 12.6219087,17.6935763 C16.5298637,16.7557964 18.641432,12.0945385 22.8532162,10.4924857 L22.8532162,10.4924857 Z M10.2770163,16.8131165 C10.3024101,16.7985682 10.3269076,16.7854748 10.3469239,16.7770368 C10.3836702,16.7712175 10.4589553,16.7645254 10.5677005,16.7645254 L11.056755,16.7645254 L11.1690852,16.2972357 C11.3402692,15.4691496 11.7647936,14.9305735 12.4316047,14.6972196 L12.7399152,14.5886897 L12.811914,14.2776482 C12.8238641,14.2267294 12.8328266,14.1775563 12.8408928,14.13042 C12.967563,14.2956881 13.0589807,14.378904 13.1229133,14.4254584 C13.1692196,14.5348612 13.2220984,14.8531768 13.0772045,15.2570361 C13.0562919,15.3146472 13.0368732,15.3612016 13.0192469,15.3987361 L12.3476558,15.1322122 L12.4823923,16.1252754 C12.5782912,16.8308654 12.3097145,17.1381243 12.2254669,17.2158119 L12.2191931,17.2216312 L12.0569716,17.1427797 L12.0554778,17.1456894 L12.2168031,17.2239589 L12.2069443,17.2329789 C11.6599322,17.3086297 10.7693571,17.3327798 10.2770163,16.8131165 L10.2770163,16.8131165 Z M15.8065888,12.8897456 C15.9526778,13.5703125 16.4494998,14.0859024 16.8301079,14.3576636 C15.3205218,15.6204513 13.9925759,16.7584151 12.9941518,17.0674198 C13.082582,16.8154442 13.1342658,16.4840352 13.0751132,16.0490426 C13.0751132,16.0490426 13.0948307,16.0563168 13.127992,16.0563168 C13.2268785,16.0563168 13.4473563,15.9888129 13.6415441,15.448782 C13.9008595,14.7268981 13.7216092,14.0966681 13.4993389,13.9703893 C13.3965687,13.9119054 13.2352435,13.674478 13.090947,13.4355958 C13.3601212,13.2109709 13.6125653,12.9773261 13.8464869,12.7401896 C14.4412991,13.1492863 14.7702234,13.599991 14.7702234,13.599991 C14.6910545,15.0143714 14.8213097,15.8072508 14.8965949,15.5183226 C14.9614237,15.2710025 15.4200057,14.3468979 15.3671268,13.5368516 C15.3244055,12.8789799 14.7839659,12.3825938 14.4227766,12.1210163 C14.5022442,12.0296533 14.5745418,11.9423639 14.6468395,11.8544925 C15.3318743,12.3043242 15.8065888,12.8897456 15.8065888,12.8897456 L15.8065888,12.8897456 Z M14.8980886,10.1474013 C14.5724506,8.92011132 13.0763082,7.69893158 12.6732938,7.38905395 C13.0667482,7.11409211 13.5480352,6.76202456 13.9970572,6.42654202 C14.6456445,6.98694044 15.8370613,8.1490543 15.9012927,9.15259228 C15.5290496,9.51077009 15.1660678,9.86865693 14.8980886,10.1474013 L14.8980886,10.1474013 Z M16.223047,3.29634149 C16.2499345,3.29634149 16.278017,3.29663246 16.3055021,3.29721439 C16.3055021,3.29721439 16.6442851,3.13631079 17.0099557,3.13631079 C17.3606888,3.13631079 17.7365168,3.28441193 17.8610958,3.86488693 C17.8610958,3.86488693 18.0209273,3.80465719 18.1959951,3.80465719 C18.3343165,3.80465719 18.4816005,3.8419007 18.5688357,3.97516263 C18.6635396,3.95275833 18.7483847,3.94315649 18.8230723,3.94315649 C19.4970534,3.94315649 19.3966732,4.75814921 19.3966732,4.75814921 C19.6766024,4.99237596 19.407727,5.45588307 19.407727,5.45588307 C20.5764388,5.87079904 19.7626426,7.03669544 19.7626426,7.03669544 C19.6422461,7.98785974 19.2619368,8.27271439 18.8493624,8.27271439 C18.2303514,8.27271439 17.5384453,7.63113675 17.5384453,7.63113675 C17.5366528,7.63259158 17.5309765,7.63724702 17.5285865,7.63928377 C17.0434158,6.33256035 15.2846717,5.12272825 15.2001253,5.06133465 C14.8858398,4.49162535 14.4383116,3.29634149 16.223047,3.29634149 L16.223047,3.29634149 Z M15.2825805,5.44162579 C15.7713362,5.81580667 16.9941219,6.83651158 17.2868974,7.85110623 C17.0219057,8.09086132 16.59051,8.49297482 16.1396956,8.92331193 C15.9965941,7.87932982 14.8971924,6.79868614 14.2444226,6.2409064 C14.7077846,5.89233044 15.1021352,5.58827211 15.2825805,5.44162579 L15.2825805,5.44162579 Z M8.43492086,5.02496404 C8.64733245,5.43522456 9.08201439,5.99184044 9.73896668,6.24614377 C9.73896668,6.24614377 10.2241374,6.88132018 10.5381242,7.62386263 C10.4502916,7.67594535 10.3615627,7.73006482 10.2704438,7.78680298 C10.0804385,7.40156544 9.66338281,6.70208579 9.08171564,6.56678711 C8.2712056,6.37795088 7.18494888,6.650585 6.92384097,6.67007965 C6.61881674,6.69335684 7.39795797,6.95318851 8.84271526,7.11903851 C8.84271526,7.11903851 9.27829345,7.54442921 9.59496895,8.23517991 C9.44111246,8.34458272 9.28785346,8.45980482 9.13489322,8.58055526 C8.93024915,8.47784465 8.1741117,8.08969746 8.06208027,7.90231605 C7.97813139,7.76207096 7.67609466,7.63928377 7.27188527,7.63928377 C7.05260242,7.63928377 6.80434078,7.67536342 6.54353162,7.76410772 C5.80233169,8.01695623 5.92780689,8.31577719 5.92780689,8.31577719 C5.79307043,8.2983193 5.66789398,8.29046325 5.55108254,8.29046325 C5.39095229,8.29046325 5.25024082,8.30704825 5.12237562,8.3314893 C5.50865998,7.40563895 6.84915335,6.30142711 8.43492086,5.02496404 L8.43492086,5.02496404 Z M4.83766641,9.05511904 C4.96433661,8.96986632 5.18750322,8.87239307 5.55168005,8.87239307 C5.6460852,8.87239307 5.74646535,8.8787943 5.84983302,8.89246965 L6.87096214,9.02369482 L6.59641045,8.36931474 C6.63465051,8.35214781 6.68245059,8.33352605 6.74190193,8.31315851 C6.91816471,8.25292877 7.10189625,8.2212136 7.27218402,8.2212136 C7.43589928,8.2212136 7.54524195,8.25031009 7.59543203,8.26951377 C7.64353086,8.33178026 7.72837599,8.42110649 7.89806626,8.54331175 C7.84877243,8.55058588 7.7982836,8.56047868 7.74689852,8.57153535 L7.42753427,8.64165789 L7.31610034,8.94193368 C7.07620371,9.5910764 6.52351534,10.0045375 5.67327149,10.1715514 L5.19108822,10.265824 L5.19347823,10.7447523 C5.19407573,10.8573557 5.18630822,10.9347524 5.18063196,10.9722868 C5.17973571,10.9740326 5.1779432,10.9769423 5.17704695,10.9783971 C4.55146346,10.4942315 4.66170239,9.63850368 4.83766641,9.05511904 L4.83766641,9.05511904 Z M5.76140288,11.112241 C5.77902916,11.0319346 5.79157668,10.9010004 5.79068042,10.7418426 C7.25754525,10.4540783 7.71732223,9.57390947 7.87864748,9.13891693 C7.98888641,9.11476684 8.0817978,9.10487404 8.16036918,9.10487404 C8.30048315,9.10487404 8.3936933,9.13600728 8.4570284,9.17266886 C8.35694699,9.26926921 8.25567058,9.36528763 8.16096668,9.46712535 L8.13527414,9.49505798 L8.1119716,9.52531833 C7.46786558,10.3519496 6.93877849,10.9618121 6.55607914,11.3802196 L6.57251041,11.3476316 C6.22775237,11.3464677 5.94513442,11.3057326 5.71031655,11.2373559 C5.73451534,11.1899286 5.75363537,11.1462839 5.76140288,11.112241 L5.76140288,11.112241 Z M2.61496289,13.9578778 C2.93492465,13.3349219 3.02425104,12.7617211 3.04844983,12.4532982 C3.22351761,12.2568969 3.33435403,12.198413 3.37468535,12.1821189 C3.42666793,12.2222721 3.49896554,12.3337117 3.55214313,12.4506796 C3.36512533,13.2115528 3.01050852,13.6770967 2.61496289,13.9578778 L2.61496289,13.9578778 Z M4.45436956,11.8451816 C4.24076297,11.6409242 3.87329989,11.4742013 3.24323514,11.4742013 C2.95822719,11.4742013 2.72878682,11.5082442 2.70399053,11.5120268 L2.48530519,11.5457787 L2.34190496,11.709301 C2.33025369,11.7229763 1.4821011,12.6907256 0.724469898,13.4708025 C0.690711094,12.8914914 0.761514956,12.1090868 1.13316055,11.41048 C1.21770693,11.3010772 1.2944858,11.1838183 1.37514843,11.0610311 C1.72767399,10.5215822 2.12799962,9.91084684 3.41949792,9.56256184 C3.70599962,9.48487421 3.94261,9.42435351 4.1367978,9.37809009 C3.83505983,10.5506787 4.2315017,11.1852732 4.76268005,11.5280298 C4.66110488,11.6403423 4.55385346,11.7517818 4.45436956,11.8451816 L4.45436956,11.8451816 Z M4.97270163,12.1617514 C5.09369557,12.0424558 5.21349451,11.9126854 5.32253843,11.783497 C5.60097387,11.8707865 5.86447179,11.9065752 6.04342332,11.9208325 C6.01444453,11.9499289 5.98456948,11.9798983 5.9639557,11.9996839 C5.81338546,12.0837728 5.65355396,12.1664068 5.54749754,12.2155799 L4.97270163,12.1617514 L4.97270163,12.1617514 Z M8.81045021,15.1359947 C8.81045021,15.1359947 8.17859296,15.4458724 8.1077891,15.7356734 C8.1077891,15.7356734 7.82397615,15.4854436 7.9225638,15.2648922 C8.02204771,15.0440498 8.7393476,14.3233297 9.00792427,14.171737 C8.91919538,13.9587507 7.61216206,12.5920885 7.61216206,12.5920885 C7.61216206,12.5920885 7.52522567,12.803329 6.87633964,13.185075 C6.51873533,13.3611088 6.26479743,13.4225024 6.08465089,13.4225024 C5.67237524,13.4225024 5.64459144,13.10215 5.64459144,13.10215 L5.6520602,13.10215 C5.8095017,13.10215 6.51186407,12.6997455 6.51186407,12.6997455 C6.51186407,12.6997455 7.40960924,11.8693317 8.82568648,10.0522558 C9.87459939,8.92273 11.4039031,8.12432228 11.9500189,7.85605263 C12.0462166,7.80862535 12.2126206,7.70329605 12.4184597,7.56421482 C12.6610451,7.74664982 14.4804354,9.15433807 14.648632,10.4165439 C14.5894794,10.4831748 14.5386918,10.5428226 14.508518,10.5850125 C14.1577849,11.0726697 13.1282908,12.4332217 11.83022,13.2828392 C9.78198675,14.3887968 8.81045021,15.1359947 8.81045021,15.1359947 L8.81045021,15.1359947 Z M9.94629951,15.4188126 C10.418624,15.1074802 11.1804377,14.6332074 12.2442881,14.0579697 C12.2392094,14.0885211 12.2374169,14.1155808 12.2293506,14.1493327 C11.7818224,14.3058718 10.8786997,14.7539578 10.583833,16.1823046 L10.5677005,16.1823046 C10.4111552,16.1823046 10.2826925,16.1939432 10.2026274,16.2111101 C10.1491511,16.2224577 10.0765547,16.2547548 9.99200833,16.302764 C9.92329572,16.0667915 9.90208444,15.7764085 9.94629951,15.4188126 L9.94629951,15.4188126 Z M8.82927149,18.3622137 C8.94817418,18.4140054 9.06349186,18.4847099 9.10471942,18.5356288 C9.08828815,18.574909 9.02853805,18.682857 8.82688148,18.8530715 C8.50691973,18.8751848 7.92286255,18.9604375 7.28771905,19.2700242 C7.573922,18.8932246 8.048039,18.5452306 8.82927149,18.3622137 L8.82927149,18.3622137 Z M10.2567012,20.4833479 C10.130031,20.5619084 10.0093359,20.6363954 9.89730443,20.7187385 C9.23168838,21.0553849 8.52723476,21.1266713 8.049234,21.1266713 C7.95482885,21.1266713 7.86490496,21.1237617 7.77976108,21.1188153 C8.58100984,20.3806373 9.57644642,19.5528421 9.59048769,19.5417854 L9.75838546,19.4021223 L9.79304051,19.1897179 C9.83337183,18.9386152 9.93405074,18.0799777 9.52685384,17.5731168 C9.5023563,17.5422746 9.47606626,17.5131781 9.44858122,17.4861183 C9.52476259,17.4090126 9.61259523,17.3272515 9.70371412,17.2475271 C10.072671,17.6906667 10.7535233,17.9886147 11.978699,17.8169454 C11.9314964,18.0019991 11.8711488,18.2242963 11.7949674,18.492275 C11.4367656,19.7501163 10.8099871,20.1400093 10.2567012,20.4833479 L10.2567012,20.4833479 Z"></path>
                        <ellipse cx="8.4594184" cy="12.123926" rx="0.606762211" ry="0.590949737"></ellipse>
                        <ellipse cx="9.6550178" cy="13.2877856" rx="0.606762211" ry="0.590949737"></ellipse>
                    </g>
                </g>
            </g>
        </g>
    </g>
</svg>