<svg width="128" height="76" viewBox="0 0 128 76" xmlns="http://www.w3.org/2000/svg"><g fill="none" fill-rule="evenodd"><g transform="rotate(-12 109.358 16.47)"><rect fill="#F6F6F6" y="1" width="72" height="54" rx="6"/><path d="M4 6.998v42.004C4 50.11 4.892 51 6 51h60c1.102 0 2-.897 2-1.998V6.998C68 5.89 67.108 5 66 5H6c-1.102 0-2 .897-2 1.998zm-4 0C0 3.686 2.69 1 6 1h60c3.314 0 6 2.678 6 5.998v42.004C72 52.314 69.31 55 66 55H6c-3.314 0-6-2.678-6-5.998V6.998z" fill="#DFDFDF"/><path d="M10 13h50M10 19h50M10 25h30M18 41h20M10 41h4" stroke="#DFDFDF" stroke-width="4"/><path d="M10 33h50" stroke="#DFDFDF" stroke-width="2" opacity=".457"/></g><g transform="rotate(11 -15.89 305.52)"><rect fill="#F6F6F6" y="1" width="72" height="54" rx="6"/><path d="M4 6.998v42.004C4 50.11 4.892 51 6 51h60c1.102 0 2-.897 2-1.998V6.998C68 5.89 67.108 5 66 5H6c-1.102 0-2 .897-2 1.998zm-4 0C0 3.686 2.69 1 6 1h60c3.314 0 6 2.678 6 5.998v42.004C72 52.314 69.31 55 66 55H6c-3.314 0-6-2.678-6-5.998V6.998z" fill="#DFDFDF"/><path d="M10 13h50M10 19h50M10 25h30M18 41h20M10 41h4" stroke="#DFDFDF" stroke-width="4"/><path d="M10 33h50" stroke="#DFDFDF" stroke-width="2" opacity=".457"/></g><g transform="translate(28)"><rect fill="#F6F6F6" width="72" height="54" rx="6"/><path d="M4 5.998v42.004C4 49.11 4.892 50 6 50h60c1.102 0 2-.897 2-1.998V5.998C68 4.89 67.108 4 66 4H6c-1.102 0-2 .897-2 1.998zm-4 0C0 2.686 2.69 0 6 0h60c3.314 0 6 2.678 6 5.998v42.004C72 51.314 69.31 54 66 54H6c-3.314 0-6-2.678-6-5.998V5.998z" fill="#DFDFDF"/><path d="M10 12h50M10 18h50M10 24h30M18 40h20M10 40h4" stroke="#DFDFDF" stroke-width="4"/><path d="M10 32h50" stroke="#DFDFDF" stroke-width="2" opacity=".457"/></g></g></svg>