<svg width="64" height="38" viewBox="0 0 64 38" xmlns="http://www.w3.org/2000/svg"><g fill="none" fill-rule="evenodd"><g transform="rotate(-12 52.3 8.486)"><rect fill="#F6F6F6" y="1" width="36" height="27" rx="3"/><path d="M2 3.993v21.014c0 .547.448.993 1.007.993h29.986c.56 0 1.007-.446 1.007-.993V3.993C34 3.446 33.552 3 32.993 3H3.007C2.447 3 2 3.446 2 3.993zm-2 0C0 2.34 1.346 1 3.007 1h29.986C34.653 1 36 2.34 36 3.993v21.014C36 26.66 34.654 28 32.993 28H3.007C1.347 28 0 26.66 0 25.007V3.993z" fill="#DFDFDF"/><path d="M5 7h25M5 10h25M5 13h15M9 21h10M5 21h2" stroke="#DFDFDF" stroke-width="2"/><path d="M5 17h25" stroke="#DFDFDF" opacity=".457"/></g><g transform="rotate(11 -4.85 147.817)"><rect fill="#F6F6F6" x="1" y="1" width="36" height="27" rx="3"/><path d="M3 3.993v21.014c0 .547.448.993 1.007.993h29.986c.56 0 1.007-.446 1.007-.993V3.993C35 3.446 34.552 3 33.993 3H4.007C3.447 3 3 3.446 3 3.993zm-2 0C1 2.34 2.346 1 4.007 1h29.986C35.653 1 37 2.34 37 3.993v21.014C37 26.66 35.654 28 33.993 28H4.007C2.347 28 1 26.66 1 25.007V3.993z" fill="#DFDFDF"/><path d="M6 7h25M6 10h25M6 13h15M10 21h10M6 21h2" stroke="#DFDFDF" stroke-width="2"/><path d="M6 17h25" stroke="#DFDFDF" opacity=".457"/></g><g transform="translate(14)"><rect fill="#F6F6F6" width="36" height="27" rx="3"/><path d="M2 2.993v21.014c0 .547.448.993 1.007.993h29.986c.56 0 1.007-.446 1.007-.993V2.993C34 2.446 33.552 2 32.993 2H3.007C2.447 2 2 2.446 2 2.993zm-2 0C0 1.34 1.346 0 3.007 0h29.986C34.653 0 36 1.34 36 2.993v21.014C36 25.66 34.654 27 32.993 27H3.007C1.347 27 0 25.66 0 24.007V2.993z" fill="#DFDFDF"/><path d="M5 6h25M5 9h25M5 12h15M9 20h10M5 20h2" stroke="#DFDFDF" stroke-width="2"/><path d="M5 16h25" stroke="#DFDFDF" opacity=".457"/></g></g></svg>