<svg width="163" height="31" viewBox="0 0 163 31" xmlns="http://www.w3.org/2000/svg"><g fill="none" fill-rule="evenodd"><g fill="#FFF"><path d="M46.873 4.783c-.34-.027-.707-.053-1.1-.053C41.796 4.73 38 7.543 38 11.125c0 2.096 1.31 3.078 3.403 3.078-.21-.318-.916-1.088-.916-3 0-2.174.942-3.74 2.59-4.563v18.363c.21-.027.393-.027.603-.027 4.554 0 8.585 6.024 11.883 6.024 1.963 0 2.905-2.096 2.905-3.688 0-.16 0-.32-.026-.478-.68.318-1.414.424-2.068.424-3.376 0-6.648-2.76-9.5-3.396V4.782z"/><path d="M55.972 10.568c-4.483 0-5.545 4.64-5.545 7.732 0 4.586 2.306 6.132 4.845 6.132 3.732 0 5.053-3.337 5.053-7.515 0-.245 0-.49-.026-.733 1.58-.326 3.29-1.085 4.016-2.225l-.39-.733c-.984.868-2.59 1.628-3.55 1.628h-.18c-.415-2.985-1.866-4.287-4.224-4.287zm.026 11.314c-.777 0-1.762-.597-1.762-3.853 0-2.524.596-5.834 2.125-5.834.39 0 1.01.244 1.374 1.465-.39.136-.648.516-.648 1.276 0 .624.156 1.167 1.01 1.357v.407c0 2.957-.62 5.182-2.098 5.182z"/><path d="M82.957 19.46c-.39.404-.964.914-1.564 1.318-.026-2.768-1.017-3.843-2.738-10.777l-3.755.54c-.86 2.39-1.825 3.868-2.973 4.218-.547-2.634-2.06-4.058-4.015-4.058-.6 0-1.096.134-2.034.806V5.46l-3.755.537v14.27c0 2.526 1.382 4.165 4.302 4.165 4.668 0 5.71-4.192 5.71-7.363 0-.35-.025-.673-.05-.995 1.38-.565 2.502-1.747 3.31-3.6 1.41 5.05 2.217 5.938 2.217 8.33 0 1.1-.417 1.504-1.278 1.504-.99 0-1.67-.753-1.93-2.016.183.27.522.35.783.35.6 0 1.017-.458 1.017-1.022 0-.833-.548-1.317-1.617-1.317-.756 0-1.408.753-1.408 1.962 0 2.23 1.33 4.165 4.432 4.165 1.33 0 2.738-.483 3.39-1.8.965-.726 2.086-1.693 3.05-3.17h-1.095zM69.45 17.31c0 2.043-.443 4.516-2.268 4.516-.757 0-1.304-.43-1.304-1.586v-7.095c.26-.322.938-.483 1.356-.483.704 0 1.277.51 1.67 1.397-.132.187-.21.456-.21.778 0 .726.235 1.237.704 1.48.026.32.052.643.052.993z"/><path d="M83.414 7.446v3.64h-.823v1.055h.824v8.204c0 2.453.926 4.088 3.575 4.088 1.39 0 3.807-.58 4.373-4.88h-1.08c-.104 1.32-.824 2.322-1.827 2.322-1.003 0-1.338-.343-1.338-1.82V12.14h1.57v-1.054h-1.57V6.92l-3.704.526z"/><path d="M96.476 22.153c-1.94 0-2.587-.95-2.64-3.364 2.667-.137 5.28-1.846 5.28-5.075 0-.57-.08-3.147-3.502-3.147-4.5 0-5.713 4.504-5.713 7.65 0 4.424 2.21 6.214 5.31 6.214 3.665 0 5.39-2.523 6.386-5.02h-.916c-1.024 1.547-2.02 2.74-4.204 2.74zm.566-8.41c0 2.007-1.4 3.608-3.207 3.743.135-2.93.97-5.48 2.183-5.48.512 0 1.024.488 1.024 1.736z"/><path d="M100.135 10.705v13.727h3.737V14c.545-.632 1.038-1.1 1.557-1.1.985 0 .414 1.73 1.97 1.73 1.065 0 1.506-.823 1.506-1.62 0-1.152-.934-2.442-2.23-2.442-1.09 0-2.052.878-2.804 1.84v-1.703h-3.737zM129.454 19.204c-.86 1.68-2.554 2.8-4.508 2.8-2.502 0-4.482-1.84-4.482-7.76 0-4.456 1.12-8.99 3.466-8.99 1.094 0 1.824 1.013 1.824 2.16 0 .747-.313 1.654-.756 1.92.625.588 1.225.694 1.642.694 1.068 0 1.407-.747 1.407-1.813 0-2.855-2.398-4.215-5.003-4.215-5.368 0-6.828 5.842-6.828 10.67 0 6.508 2.632 9.762 7.088 9.762 3.283 0 6.046-1.76 6.8-4.96l-.65-.268z"/><path d="M136.163 16.128c0 .726-.053 2.634-.053 3.28 0 3.036 1.15 5.024 3.902 5.024 1.577 0 3.42-.645 3.982-4.97h-1.122c-.294 1.37-.535 2.364-1.764 2.364-1.096 0-1.39-.78-1.39-2.31 0-.915.107-2.904.107-3.844 0-3.763-1.71-4.945-3.742-4.945-.91 0-2.03.242-2.86 1.505V5.46l-3.85.537V24.27h3.85v-8.625c.107-1.237.508-2.473 1.577-2.473.882 0 1.363.833 1.363 2.956z"/><path d="M149.166 10.703v1.303c-.44-1.276-1.576-1.438-2.43-1.438-3.59 0-4.935 4.26-4.935 7.57 0 4.72 2.38 6.294 4.55 6.294 1.834 0 2.79-1.248 3.333-2.496.362 1.547 1.267 2.496 3.076 2.496 1.394 0 3.823-.596 4.392-5.02h-1.085c-.104 1.358-.827 2.39-1.835 2.39s-1.344-.354-1.344-1.874v-9.225h-3.722zm0 8.71c0 1.574-.93 2.388-1.68 2.388-.645 0-1.912-.054-1.912-3.907 0-2.36.646-5.643 2.326-5.643.853 0 1.19.76 1.266 1.058v6.105z"/><path d="M156.51 7.446v3.64h-.82v1.055h.82v8.204c0 2.453.92 4.088 3.557 4.088 1.255 0 2.202-.764 2.202-2.215 0-.185 0-.37-.027-.554-.128.105-.332.21-.716.21-1 0-1.332-.342-1.332-1.82v-7.912h1.536v-1.054h-1.535V6.92l-3.686.526z"/></g><g><ellipse fill="#FFF" cx="15.894" cy="15.5" rx="15.894" ry="15.5"/><g transform="translate(4.392 4.69)" fill="#E74C3C"><path d="M22.853 10.492c-2 .596-4.003 2.182-5.773 3.657-.224-.382-.544-.94-.677-1.426-.17-.628-.862-1.252-1.228-1.547l.043-.058c.39.293 1.306.9 1.77.478.597-.543 1.867-.465 2.26-.572.396-.108-.738-.62-1.605-.406-.748.185-.884.34-.968.31-.084-.032-.558-.362-.79-.525.52-.52 1.235-1.2 1.713-1.644.346.203.787.386 1.25.386.45 0 1.495-.182 1.776-1.813.18-.323.447-.96.228-1.62-.066-.202-.193-.445-.43-.665 0-.194-.04-.387-.13-.565-.024-.28-.113-.653-.39-.958-.268-.292-.65-.454-1.077-.455-.125-.06-.263-.102-.41-.123-.316-.434-.81-.683-1.405-.683-.355 0-.677.088-.88.16-1.195.026-1.71.525-1.934.946-.318.6-.168 1.27.047 1.768-.54.414-1.36 1.025-1.966 1.454-.208-.296-.51-.732-.524-.806-.018-.086.268-.16.582-.847.366-.796.053-2.04-.123-1.68-.176.36-.313 1.592-.965 2.073-.488.36.03 1.288.323 1.73l-.024.014c-.08.04-.173.086-.266.135-.256-.477-.757-1.3-1.285-1.535-.462-.207-.957-.59-1.3-.86C10.44 3.41 12.427 1.8 13.742 0c-2.95 3.652-7.605 4.864-9.262 8.438-.035.077-.065.15-.096.224-.035.03-.067.058-.09.082-.207.043-.532.12-1.034.257-1.864.504-2.205 1.57-2.632 2.094-.78 1.417-.502 3.143-.242 3.522.58-.504 1.545-1.56 2.06-2.135-.05.49-.29 1.617-1.433 2.455 0 0 .087.01.234.01.638 0 2.394-.212 2.903-2.44.01.094.053.136.12.136.1 0 .25-.088.417-.222l.065.756c.047.544.53 1.12 1.333 1.12.088 0 .18-.006.272-.02-.944.567-2.6 1.502-3.68 1.776-1.585.4 2.693-.124 4.5-2.038.035-.018.068-.03.104-.05l.03-.013.03-.018c.07-.04.137-.082.2-.123.083.088.162.175.235.256-.238.237-.458.492-.59.702-1.945 1.622-2.972 5.007-2.35 3.653.41-.896 1.443-2.152 2.176-2.987.027.388.25.733.497.95l1.122.988.315-1.29c.07-.052.18-.12.268-.165l.073-.035c-.003.245.024.547.126.842-.53.443-1.027 1.018-.64 1.058-2.814.608-2.494 3.056-2.494 3.056.86-1.114 2.017-1.348 2.52-1.396-.59.5-1.675 1.44-2.193 2.006.198.128.755.262 1.445.262.666 0 1.457-.124 2.172-.498.54-.416 1.632-.748 2.15-2.563.127-.45.204-.75.25-.953 3.908-.938 6.02-5.6 10.23-7.202zm-12.576 6.32c.025-.013.05-.027.07-.035.037-.006.112-.012.22-.012h.49l.112-.468c.17-.828.595-1.366 1.262-1.6l.308-.108.072-.312c.012-.05.02-.1.03-.148.126.166.217.25.28.295.047.11.1.428-.045.832-.02.058-.04.104-.058.142l-.672-.268.134.993c.096.706-.172 1.013-.257 1.09l-.006.007-.163-.08-.002.004.162.078-.01.01c-.547.075-1.438.1-1.93-.42zm5.53-3.922c.146.68.642 1.196 1.023 1.468-1.51 1.262-2.837 2.4-3.836 2.71.09-.253.14-.584.08-1.02 0 0 .02.008.054.008.1 0 .32-.067.514-.607.26-.723.08-1.353-.143-1.48-.103-.058-.265-.296-.41-.534.27-.225.523-.46.756-.696.595.41.924.86.924.86-.08 1.414.05 2.207.127 1.918.064-.247.523-1.17.47-1.98-.043-.66-.583-1.155-.944-1.417.08-.09.152-.178.224-.266.685.45 1.16 1.036 1.16 1.036zm-.91-2.743c-.325-1.227-1.82-2.448-2.224-2.758.394-.276.875-.628 1.324-.963.65.56 1.84 1.722 1.904 2.726-.37.358-.734.716-1.002.994zm1.326-6.85h.083s.338-.16.704-.16c.35 0 .727.147.85.728 0 0 .16-.06.336-.06.138 0 .286.037.373.17.094-.022.178-.032.253-.032.674 0 .574.815.574.815.28.234.01.698.01.698 1.17.415.356 1.58.356 1.58-.12.952-.5 1.237-.914 1.237-.62 0-1.312-.642-1.312-.642 0 .003-.007.007-.01.01-.485-1.307-2.243-2.517-2.328-2.58-.314-.568-.762-1.764 1.023-1.764zm-.94 2.145c.488.374 1.71 1.395 2.004 2.41-.265.24-.696.64-1.147 1.07-.143-1.043-1.243-2.123-1.896-2.68.464-.35.858-.654 1.04-.8zm-6.848-.417c.212.41.647.967 1.304 1.22 0 0 .484.636.798 1.38-.088.05-.176.105-.268.162-.19-.385-.607-1.085-1.188-1.22-.81-.19-1.897.084-2.158.103-.305.023.474.283 1.92.45 0 0 .434.424.75 1.115-.153.11-.306.225-.46.346-.204-.102-.96-.49-1.072-.678-.084-.14-.386-.263-.79-.263-.22 0-.468.035-.728.124-.742.253-.616.552-.616.552-.135-.018-.26-.026-.377-.026-.16 0-.3.017-.428.04.387-.924 1.727-2.03 3.313-3.305zm-3.597 4.03c.126-.085.35-.183.714-.183.094 0 .194.007.298.02l1.02.132-.274-.655c.04-.018.086-.036.146-.057.176-.06.36-.092.53-.092.164 0 .273.03.323.05.05.062.133.15.303.273-.05.008-.1.017-.15.03l-.32.07-.112.3c-.24.648-.792 1.062-1.643 1.23l-.482.093.003.48c0 .11-.007.19-.012.226l-.003.006c-.626-.484-.515-1.34-.34-1.923zm.923 2.057c.02-.08.032-.21.03-.37 1.468-.288 1.927-1.168 2.09-1.603.11-.025.202-.035.28-.035.14 0 .234.03.297.068-.1.096-.2.192-.296.294l-.025.028-.023.03c-.644.827-1.173 1.437-1.556 1.855l.017-.032c-.345-.002-.628-.042-.863-.11.025-.048.044-.092.05-.126zm-3.145 2.846c.32-.623.41-1.196.433-1.505.176-.196.286-.255.327-.27.052.04.124.15.177.268-.187.762-.54 1.227-.937 1.508zm1.84-2.113c-.214-.204-.582-.37-1.212-.37-.285 0-.514.033-.54.037l-.218.034-.143.163c-.012.013-.86.98-1.618 1.76-.033-.58.038-1.36.41-2.06.084-.11.16-.226.24-.35.354-.538.754-1.15 2.045-1.497.286-.078.523-.14.717-.185-.302 1.173.095 1.807.626 2.15-.102.112-.21.224-.31.317zm.518.317c.12-.12.24-.25.35-.38.278.09.54.125.72.14-.03.028-.058.058-.08.078-.15.084-.31.166-.416.216l-.574-.054zm3.837 2.974s-.63.31-.702.6c0 0-.284-.25-.185-.47.1-.222.816-.943 1.085-1.094-.09-.213-1.396-1.58-1.396-1.58s-.087.21-.736.593c-.357.176-.61.238-.79.238-.414 0-.44-.32-.44-.32h.006c.158 0 .86-.403.86-.403s.898-.83 2.314-2.648c1.05-1.13 2.578-1.928 3.124-2.196.096-.047.263-.153.468-.292.243.183 2.062 1.59 2.23 2.853-.06.066-.11.126-.14.168-.35.488-1.38 1.848-2.678 2.698-2.048 1.106-3.02 1.853-3.02 1.853zm1.136.283c.473-.313 1.234-.787 2.298-1.362-.005.03-.007.058-.015.09-.448.158-1.35.606-1.646 2.034h-.016c-.157 0-.285.012-.365.03-.054.01-.126.043-.21.09-.07-.235-.09-.526-.047-.883zM8.83 18.36c.118.052.233.123.275.174-.017.04-.076.147-.278.317-.32.022-.904.107-1.54.417.287-.377.76-.725 1.542-.908zm1.427 2.12c-.127.08-.248.154-.36.237-.665.335-1.37.407-1.848.407-.095 0-.185-.003-.27-.008.8-.74 1.796-1.567 1.81-1.578l.168-.14.035-.212c.04-.25.14-1.11-.266-1.617-.025-.03-.05-.06-.078-.087.075-.077.163-.16.254-.238.37.443 1.05.74 2.275.57-.05.184-.11.406-.185.674-.358 1.258-.985 1.648-1.538 1.99z"/><ellipse cx="8.459" cy="12.124" rx=".607" ry=".591"/><ellipse cx="9.655" cy="13.288" rx=".607" ry=".591"/></g></g></g></svg>