<svg width="410" height="96" viewBox="0 0 410 96" xmlns="http://www.w3.org/2000/svg"><g fill="none" fill-rule="evenodd"><g transform="translate(.672)"><circle fill="#FFF" cx="48" cy="48" r="48"/><g transform="translate(13.263 14.526)" fill="#E74C3C"><path d="M69.02 32.493c-6.046 1.844-12.09 6.756-17.437 11.323-.676-1.18-1.643-2.91-2.043-4.41-.517-1.947-2.604-3.88-3.71-4.794l.13-.178c1.175.91 3.946 2.788 5.346 1.482 1.803-1.682 5.638-1.438 6.83-1.772 1.19-.332-2.234-1.92-4.852-1.257-2.26.573-2.67 1.057-2.925.957-.253-.096-1.686-1.117-2.388-1.62 1.574-1.612 3.732-3.72 5.174-5.094 1.045.625 2.38 1.192 3.78 1.192 1.356 0 4.513-.56 5.36-5.612.544-1 1.35-2.975.69-5.017-.2-.626-.583-1.38-1.3-2.06-.003-.6-.123-1.198-.397-1.75-.07-.864-.336-2.022-1.175-2.967-.807-.905-1.96-1.407-3.25-1.408-.38-.188-.795-.317-1.24-.382-.955-1.344-2.45-2.116-4.244-2.116-1.07 0-2.042.272-2.66.498-3.605.078-5.164 1.625-5.837 2.93-.96 1.86-.507 3.927.142 5.474-1.63 1.28-4.108 3.173-5.937 4.502-.63-.916-1.537-2.267-1.584-2.497-.052-.265.81-.496 1.76-2.62 1.104-2.463.16-6.316-.372-5.2-.532 1.117-.946 4.93-2.915 6.418-1.475 1.115.095 3.99.975 5.36l-.073.04c-.244.123-.52.268-.804.418-.77-1.476-2.285-4.02-3.88-4.753-1.394-.64-2.89-1.824-3.93-2.667C31.537 10.56 37.537 5.58 41.505 0c-8.912 11.31-22.968 15.063-27.97 26.13-.108.24-.2.467-.294.695-.107.092-.202.18-.272.254-.624.13-1.607.374-3.123.794-5.63 1.558-6.66 4.856-7.948 6.48-2.36 4.39-1.515 9.736-.73 10.91 1.75-1.56 4.664-4.832 6.22-6.613-.15 1.514-.874 5.006-4.328 7.6 0 0 .263.033.706.033 1.928 0 7.232-.657 8.766-7.562.028.296.162.426.367.426.297 0 .75-.275 1.255-.69l.196 2.342c.142 1.683 1.6 3.47 4.027 3.47.266 0 .54-.02.82-.062-2.848 1.753-7.85 4.647-11.115 5.496-4.785 1.242 8.136-.383 13.592-6.31l-.003-.005c.11-.05.21-.09.32-.145l.09-.046.086-.052c.213-.128.415-.255.608-.38.247.275.486.543.708.796-.718.732-1.383 1.522-1.782 2.174-5.875 5.023-8.976 15.505-7.102 11.312 1.242-2.777 4.36-6.67 6.577-9.253.077 1.202.754 2.27 1.496 2.94l3.39 3.06.955-3.995c.208-.162.543-.375.81-.512l.22-.11c-.008.76.072 1.694.38 2.607-1.596 1.375-3.1 3.155-1.935 3.277-8.497 1.885-7.53 9.464-7.53 9.464 2.596-3.448 6.093-4.173 7.61-4.324-1.782 1.554-5.058 4.464-6.623 6.214.6.397 2.28.812 4.363.812 2.013 0 4.403-.386 6.56-1.543 1.63-1.287 4.932-2.316 6.49-7.936.39-1.398.62-2.326.76-2.954 11.802-2.904 18.18-17.34 30.9-22.3zM31.037 52.066c.076-.045.15-.085.21-.11.112-.02.34-.04.667-.04h1.477l.34-1.447c.517-2.566 1.8-4.233 3.813-4.956l.93-.336.218-.963c.036-.158.063-.31.088-.456.383.51.66.768.852.912.14.34.3 1.325-.138 2.576-.063.178-.12.322-.175.438l-2.03-.825.408 3.076c.29 2.185-.52 3.137-.776 3.377l-.02.02-.49-.246-.003.01.486.242-.03.027c-1.652.234-4.34.31-5.828-1.3zm16.7-12.15c.44 2.108 1.94 3.705 3.09 4.546-4.56 3.91-8.57 7.435-11.584 8.392.267-.78.423-1.807.244-3.154 0 0 .06.023.16.023.298 0 .964-.21 1.55-1.882.784-2.234.243-4.186-.43-4.577-.31-.18-.796-.916-1.232-1.656.813-.696 1.575-1.42 2.282-2.154 1.796 1.267 2.79 2.663 2.79 2.663-.24 4.38.154 6.835.38 5.94.197-.765 1.582-3.627 1.422-6.135-.13-2.037-1.76-3.574-2.852-4.384.24-.283.46-.553.677-.825 2.07 1.394 3.502 3.207 3.502 3.207zm-2.744-8.492c-.984-3.8-5.502-7.582-6.72-8.542 1.19-.85 2.642-1.942 3.998-2.98 1.96 1.735 5.557 5.334 5.75 8.442-1.123 1.11-2.22 2.217-3.028 3.08zm4-21.216c.082 0 .167 0 .25.003 0 0 1.023-.498 2.128-.498 1.06 0 2.194.46 2.57 2.257 0 0 .483-.188 1.012-.188.417 0 .862.115 1.126.528.286-.07.542-.1.768-.1 2.035 0 1.732 2.525 1.732 2.525.845.725.033 2.16.033 2.16 3.53 1.286 1.072 4.896 1.072 4.896-.363 2.947-1.512 3.83-2.758 3.83-1.87 0-3.96-1.988-3.96-1.988-.005.004-.022.02-.03.025-1.464-4.046-6.776-7.793-7.03-7.983-.95-1.764-2.302-5.466 3.088-5.466zm-2.84 6.643c1.477 1.16 5.17 4.32 6.054 7.463-.8.743-2.103 1.988-3.465 3.32-.432-3.232-3.752-6.58-5.723-8.306 1.4-1.08 2.59-2.02 3.135-2.476zm-20.68-1.29c.642 1.272 1.955 2.995 3.94 3.783 0 0 1.464 1.967 2.412 4.266-.265.16-.533.328-.808.504-.574-1.193-1.834-3.36-3.59-3.778-2.448-.585-5.73.26-6.517.32-.92.072 1.433.876 5.796 1.39 0 0 1.315 1.317 2.272 3.456-.465.34-.928.696-1.39 1.07-.618-.318-2.9-1.52-3.24-2.1-.253-.435-1.165-.815-2.386-.815-.662 0-1.412.112-2.2.387-2.238.783-1.86 1.708-1.86 1.708-.406-.054-.784-.078-1.137-.078-.484 0-.91.05-1.295.127 1.167-2.866 5.215-6.286 10.004-10.24zM14.61 28.043c.383-.264 1.057-.566 2.157-.566.285 0 .588.02.9.062l3.084.406-.828-2.026c.115-.053.26-.11.44-.174.532-.187 1.086-.285 1.6-.285.495 0 .825.09.977.15.144.192.4.468.913.847-.15.022-.3.053-.457.087l-.964.217-.337.93c-.724 2.01-2.393 3.292-4.96 3.81l-1.457.29.007 1.484c.002.35-.022.588-.04.705l-.01.018c-1.89-1.5-1.556-4.15-1.025-5.956zm2.79 6.37c.053-.25.09-.654.088-1.147 4.43-.89 5.82-3.617 6.306-4.964.333-.074.614-.104.85-.104.424 0 .706.096.897.21-.3.3-.607.596-.893.912l-.078.086-.07.094c-1.946 2.56-3.544 4.448-4.7 5.744l.05-.1c-1.042-.005-1.895-.13-2.604-.342.073-.147.13-.282.154-.388zm-9.503 8.812c.967-1.93 1.237-3.704 1.31-4.66.528-.607.863-.788.985-.84.157.126.375.47.536.833-.565 2.356-1.636 3.798-2.83 4.667zm5.556-6.542c-.645-.633-1.755-1.15-3.658-1.15-.86 0-1.554.106-1.63.118l-.66.105-.432.506c-.035.043-2.597 3.04-4.885 5.456-.102-1.794.112-4.217 1.234-6.38.256-.34.487-.702.73-1.082 1.066-1.67 2.275-3.562 6.175-4.64.865-.24 1.58-.43 2.167-.572-.912 3.63.286 5.596 1.89 6.658-.307.348-.63.693-.93.982zm1.565.98c.365-.37.727-.77 1.057-1.17.84.27 1.636.38 2.177.424-.088.09-.178.183-.24.244-.455.26-.938.517-1.258.67l-1.736-.168zm11.59 9.21s-1.908.96-2.122 1.858c0 0-.857-.775-.56-1.458.3-.684 2.468-2.916 3.28-3.385-.27-.66-4.217-4.892-4.217-4.892s-.263.654-2.223 1.836c-1.08.546-1.847.736-2.39.736-1.246 0-1.33-.992-1.33-.992h.023c.475 0 2.596-1.246 2.596-1.246s2.712-2.57 6.988-8.198c3.168-3.498 7.787-5.97 9.436-6.802.29-.146.793-.473 1.415-.903.733.565 6.227 4.924 6.735 8.833-.178.206-.332.39-.423.52-1.06 1.512-4.168 5.725-8.09 8.356-6.184 3.425-9.12 5.74-9.12 5.74zm3.43.877c1.427-.966 3.728-2.434 6.94-4.216-.014.095-.02.18-.044.283-1.352.485-4.08 1.873-4.97 6.296h-.05c-.47 0-.86.036-1.1.09-.163.034-.382.134-.637.283-.208-.73-.272-1.63-.138-2.737zm-3.373 9.114c.36.16.708.38.832.537-.05.122-.23.457-.84.984-.965.068-2.73.332-4.647 1.29.864-1.166 2.296-2.244 4.655-2.81zm4.31 6.568c-.38.244-.746.474-1.084.73-2.01 1.042-4.137 1.263-5.58 1.263-.286 0-.557-.01-.814-.025 2.42-2.286 5.426-4.85 5.468-4.884l.507-.432.106-.658c.122-.777.426-3.436-.804-5.006-.074-.096-.153-.186-.236-.27.23-.238.495-.49.77-.738 1.114 1.372 3.17 2.295 6.87 1.763-.142.573-.324 1.262-.554 2.09-1.082 3.897-2.975 5.104-4.646 6.167z"/><ellipse cx="25.548" cy="37.545" rx="1.832" ry="1.83"/><ellipse cx="29.159" cy="41.149" rx="1.832" ry="1.83"/></g></g><g fill="#FFF"><path d="M142.716 19.982c-.793-.06-1.647-.122-2.562-.122-9.272 0-18.117 6.466-18.117 14.7 0 4.82 3.05 7.077 7.93 7.077-.488-.732-2.135-2.5-2.135-6.893 0-5.002 2.196-8.6 6.04-10.492v42.212c.487-.06.914-.06 1.402-.06 10.614 0 20.008 13.846 27.694 13.846 4.575 0 6.77-4.82 6.77-8.48 0-.365 0-.73-.06-1.097-1.586.732-3.294.976-4.82.976-7.868 0-15.493-6.345-22.142-7.81V19.983z"/><path d="M163.517 34.195c-10.553 0-13.054 10.43-13.054 17.385 0 10.31 5.43 13.786 11.407 13.786 8.784 0 11.895-7.503 11.895-16.897 0-.55 0-1.1-.06-1.648 3.72-.732 7.746-2.44 9.454-5.002l-.916-1.647c-2.318 1.952-6.1 3.66-8.357 3.66h-.427c-.976-6.71-4.392-9.638-9.943-9.638zm.06 25.437c-1.83 0-4.147-1.342-4.147-8.662 0-5.673 1.403-13.115 5.002-13.115.915 0 2.38.55 3.233 3.294-.915.304-1.525 1.158-1.525 2.866 0 1.403.366 2.623 2.38 3.05v.915c0 6.65-1.465 11.652-4.942 11.652z"/><path d="M227.018 54.08c-.915.916-2.257 2.075-3.66 2.99-.06-6.283-2.38-8.723-6.405-24.46l-8.784 1.22c-2.014 5.428-4.27 8.783-6.955 9.576-1.28-5.978-4.82-9.21-9.394-9.21-1.402 0-2.56.304-4.757 1.83V22.3l-8.784 1.22v32.39c0 5.735 3.232 9.456 10.064 9.456 10.92 0 13.36-9.516 13.36-16.714 0-.793-.062-1.525-.123-2.257 3.234-1.28 5.857-3.965 7.748-8.174 3.294 11.47 5.185 13.482 5.185 18.91 0 2.502-.976 3.417-2.99 3.417-2.317 0-3.903-1.708-4.513-4.575.427.61 1.22.793 1.83.793 1.403 0 2.38-1.037 2.38-2.318 0-1.89-1.282-2.99-3.783-2.99-1.77 0-3.294 1.71-3.294 4.454 0 5.064 3.11 9.456 10.37 9.456 3.11 0 6.405-1.098 7.93-4.087 2.257-1.648 4.88-3.844 7.137-7.2h-2.562zM195.42 49.2c0 4.637-1.037 10.25-5.307 10.25-1.77 0-3.05-.977-3.05-3.6V39.746c.61-.732 2.196-1.098 3.172-1.098 1.647 0 2.99 1.16 3.904 3.172-.306.427-.49 1.037-.49 1.77 0 1.646.55 2.805 1.648 3.354.06.732.122 1.464.122 2.257z"/><path d="M226.225 26.082V34.5h-1.952v2.44h1.952v18.97c0 5.674 2.196 9.456 8.48 9.456 3.293 0 9.027-1.342 10.37-11.285h-2.563c-.244 3.05-1.952 5.37-4.33 5.37-2.38 0-3.173-.794-3.173-4.21v-18.3h3.72V34.5h-3.72v-9.638l-8.785 1.22z"/><path d="M256.42 60.242c-4.392 0-5.856-2.135-5.978-7.564 6.04-.305 11.956-4.148 11.956-11.407 0-1.28-.183-7.075-7.93-7.075-10.187 0-12.932 10.126-12.932 17.202 0 9.943 5.002 13.97 12.017 13.97 8.296 0 12.2-5.674 14.457-11.286h-2.074c-2.318 3.478-4.575 6.162-9.516 6.162zm1.28-18.91c0 4.514-3.17 8.113-7.258 8.418.305-6.588 2.196-12.322 4.94-12.322 1.16 0 2.32 1.098 2.32 3.904z"/><path d="M265.936 34.5V65h8.784V41.82c1.28-1.403 2.44-2.44 3.66-2.44 2.318 0 .976 3.843 4.636 3.843 2.5 0 3.538-1.83 3.538-3.6 0-2.56-2.196-5.428-5.246-5.428-2.562 0-4.82 1.952-6.588 4.087V34.5h-8.784zM332.975 54.02c-2.013 3.843-5.978 6.405-10.553 6.405-5.856 0-10.492-4.21-10.492-17.75 0-10.188 2.623-20.558 8.113-20.558 2.562 0 4.27 2.318 4.27 4.94 0 1.71-.732 3.783-1.77 4.393 1.465 1.342 2.868 1.586 3.844 1.586 2.5 0 3.294-1.708 3.294-4.148 0-6.527-5.61-9.638-11.71-9.638-12.567 0-15.983 13.36-15.983 24.4 0 14.884 6.16 22.326 16.592 22.326 7.685 0 14.15-4.026 15.92-11.346l-1.525-.61z"/><path d="M348.286 46.517c0 1.647-.122 5.978-.122 7.442 0 6.892 2.623 11.406 8.906 11.406 3.6 0 7.808-1.464 9.09-11.285h-2.563c-.67 3.112-1.22 5.37-4.026 5.37-2.5 0-3.17-1.77-3.17-5.247 0-2.074.243-6.588.243-8.723 0-8.54-3.904-11.224-8.54-11.224-2.074 0-4.636.55-6.527 3.416V22.3l-8.784 1.22V65h8.784V45.42c.244-2.807 1.16-5.613 3.6-5.613 2.012 0 3.11 1.89 3.11 6.71z"/><path d="M379.945 34.5v2.928c-1.037-2.867-3.72-3.233-5.734-3.233-8.478 0-11.65 9.577-11.65 17.02 0 10.613 5.612 14.15 10.736 14.15 4.33 0 6.588-2.805 7.87-5.61.853 3.476 2.988 5.61 7.258 5.61 3.294 0 9.028-1.34 10.37-11.284h-2.562c-.244 3.05-1.952 5.37-4.33 5.37-2.38 0-3.173-.794-3.173-4.21V34.5h-8.785zm0 19.58c0 3.54-2.196 5.37-3.965 5.37-1.525 0-4.514-.123-4.514-8.785 0-5.307 1.525-12.688 5.49-12.688 2.013 0 2.806 1.708 2.99 2.38V54.08z"/><path d="M395.927 26.082V34.5h-1.952v2.44h1.952v18.97c0 5.674 2.196 9.456 8.48 9.456 2.988 0 5.245-1.77 5.245-5.124 0-.427 0-.854-.06-1.28-.306.243-.794.487-1.71.487-2.378 0-3.17-.794-3.17-4.21v-18.3h3.66V34.5h-3.66v-9.638l-8.785 1.22z"/></g></g></svg>